# Blender v2.77 (sub 0) OBJ File: ''
# www.blender.org
mtllib prim-stockpile.mtl
o Plane
v 5.249599 -0.260141 5.517932
v 4.615139 -0.071773 -5.295030
v 5.141972 0.000000 5.523242
v 4.903851 -0.360825 -5.309278
v 5.509431 -0.367894 5.505108
v 5.179688 -0.305893 -5.322892
v 5.769265 -0.260141 5.492285
v 5.335938 -0.071773 -5.330603
v 5.876890 0.000000 5.486972
v 5.281070 0.204391 -5.327895
v 5.769265 0.260141 5.492284
v 5.179688 0.305893 -5.322893
v 5.509429 0.367895 5.505107
v 4.903851 0.360825 -5.309279
v 5.249597 0.260140 5.517931
v 4.670007 0.204391 -5.297738
v -4.590600 -0.260141 -5.717284
v 4.520373 -0.071773 -5.601468
v -4.588040 0.000000 -5.825001
v 4.513506 -0.360826 -5.312514
v -4.596781 -0.367894 -5.457232
v 4.506946 -0.305893 -5.036443
v -4.602962 -0.260141 -5.197180
v 4.503229 -0.071773 -4.880062
v -4.605520 0.000000 -5.089463
v 4.504534 0.204392 -4.934976
v -4.602961 0.260141 -5.197180
v 4.506946 0.305893 -5.036443
v -4.596780 0.367895 -5.457233
v 4.513507 0.360825 -5.312513
v -4.590599 0.260141 -5.717285
v 4.519068 0.204391 -5.546554
v -5.607255 -0.260141 5.320176
v 5.067473 -0.071773 4.870362
v -5.610776 0.000000 5.212479
v 5.076921 -0.360826 5.159260
v -5.598753 -0.367894 5.580177
v 5.085947 -0.305893 5.435277
v -5.590251 -0.260141 5.840178
v 5.091059 -0.071773 5.591628
v -5.586728 0.000000 5.947875
v 5.089264 0.204392 5.536724
v -5.590250 0.260141 5.840178
v 5.085948 0.305893 5.435277
v -5.598752 0.367895 5.580175
v 5.076921 0.360826 5.159260
v -5.607254 0.260141 5.320174
v 5.069269 0.204391 4.925265
vn 0.3823 -0.9239 -0.0169
vn 0.1948 -0.9808 -0.0115
vn 0.9228 -0.3827 -0.0436
vn 0.8304 -0.5556 -0.0429
vn -0.3821 0.9239 0.0208
vn 0.9228 0.3827 -0.0436
vn 0.9795 0.1951 -0.0503
vn 0.7062 0.7071 -0.0355
vn -0.9227 0.3827 0.0475
vn 0.0236 -0.7071 -0.7068
vn 0.1947 0.9808 -0.0115
vn 0.0068 -0.9239 -0.3826
vn 0.0493 0.0000 0.9988
vn -0.5550 0.8315 0.0255
vn -0.0493 -0.0000 -0.9988
vn 0.0197 -0.3827 -0.9237
vn -0.9797 0.1951 0.0464
vn 0.3823 0.9239 -0.0169
vn -0.0114 -0.9239 0.3825
vn -0.0023 -0.9808 0.1951
vn -0.0242 -0.3827 0.9236
vn -0.0175 -0.5555 0.8313
vn 0.0068 0.9239 -0.3826
vn -0.0242 0.3827 0.9236
vn -0.0210 0.1951 0.9806
vn -0.0160 0.7071 0.7069
vn 0.0197 0.3827 -0.9237
vn -0.0173 -0.7071 -0.7069
vn -0.0023 0.9808 0.1951
vn -0.0145 -0.9239 -0.3824
vn -0.9997 0.0000 -0.0238
vn 0.0155 0.8315 -0.5554
vn 0.9997 -0.0000 0.0238
vn -0.0322 -0.3827 -0.9233
vn 0.0256 0.1951 -0.9805
vn -0.0114 0.9239 0.3825
vn 0.0105 -0.9239 0.3825
vn -0.7065 -0.7071 0.0291
vn 0.0083 -0.9808 0.1949
vn 0.0282 -0.3827 0.9234
vn 0.0291 -0.5556 0.8310
vn -0.0145 0.9239 -0.3824
vn 0.0282 0.3827 0.9234
vn 0.0340 0.1951 0.9802
vn 0.0238 0.7071 0.7067
vn -0.0322 0.3827 -0.9233
vn 0.0083 0.9808 0.1949
vn -0.9995 0.0000 0.0327
vn -0.0162 0.8315 -0.5553
vn 0.9995 -0.0000 -0.0327
vn -0.3821 -0.9239 0.0208
vn -0.0301 0.1951 -0.9803
vn 0.0105 0.9239 0.3825
vn -0.9227 -0.3827 0.0475
usemtl None
s off
f 5//1 6//1 7//1
f 5//2 4//2 6//2
f 7//3 8//3 9//3
f 7//4 6//4 8//4
f 13//5 14//5 15//5
f 9//6 10//6 11//6
f 9//7 8//7 10//7
f 10//8 12//8 11//8
f 3//9 15//9 16//9
f 17//10 18//10 20//10
f 13//11 12//11 14//11
f 17//12 20//12 21//12
f 3//13 1//13 5//13 7//13 9//13 11//13 13//13 15//13
f 15//14 14//14 16//14
f 4//15 2//15 16//15 14//15 12//15 10//15 8//15 6//15
f 18//16 17//16 19//16
f 2//17 3//17 16//17
f 11//18 12//18 13//18
f 21//19 22//19 23//19
f 21//20 20//20 22//20
f 23//21 24//21 25//21
f 23//22 22//22 24//22
f 29//23 30//23 31//23
f 25//24 26//24 27//24
f 25//25 24//25 26//25
f 26//26 28//26 27//26
f 19//27 31//27 32//27
f 33//28 34//28 36//28
f 29//29 28//29 30//29
f 33//30 36//30 37//30
f 19//31 17//31 21//31 23//31 25//31 27//31 29//31 31//31
f 31//32 30//32 32//32
f 20//33 18//33 32//33 30//33 28//33 26//33 24//33 22//33
f 34//34 33//34 35//34
f 18//35 19//35 32//35
f 27//36 28//36 29//36
f 37//37 38//37 39//37
f 1//38 2//38 4//38
f 37//39 36//39 38//39
f 39//40 40//40 41//40
f 39//41 38//41 40//41
f 45//42 46//42 47//42
f 41//43 42//43 43//43
f 41//44 40//44 42//44
f 42//45 44//45 43//45
f 35//46 47//46 48//46
f 45//47 44//47 46//47
f 35//48 33//48 37//48 39//48 41//48 43//48 45//48 47//48
f 47//49 46//49 48//49
f 36//50 34//50 48//50 46//50 44//50 42//50 40//50 38//50
f 1//51 4//51 5//51
f 34//52 35//52 48//52
f 43//53 44//53 45//53
f 2//54 1//54 3//54
