# Blender v2.78 (sub 0) OBJ File: ''
# www.blender.org
mtllib Battleaxe.mtl
o Cube.001
v -0.013867 0.395033 0.054333
v -0.013867 0.480470 0.054333
v 0.013867 0.395033 0.054333
v 0.013867 0.480470 0.054333
v 0.000000 0.345534 0.090090
v 0.000000 0.529969 0.090090
v 0.000000 0.345534 0.090090
v 0.000000 0.529969 0.090090
v 0.000000 0.363214 0.114698
v 0.000000 0.512289 0.114698
v 0.000000 0.363214 0.114698
v 0.000000 0.512289 0.114698
v 0.000000 0.422276 0.142363
v 0.000000 0.453227 0.142363
v -0.013867 0.423512 0.054333
v -0.013867 0.451991 0.054333
v 0.013867 0.451991 0.054333
v 0.013867 0.423512 0.054333
v -0.009616 0.407012 0.090090
v -0.009616 0.468490 0.090090
v 0.009616 0.468490 0.090090
v 0.009616 0.407012 0.090090
v -0.004370 0.412906 0.111492
v -0.004370 0.462597 0.111492
v 0.004370 0.462597 0.111492
v 0.004370 0.412906 0.111492
v 0.000000 0.442910 0.142363
v 0.000000 0.432593 0.142363
v -0.013867 0.395033 -0.054333
v -0.013867 0.480470 -0.054333
v 0.013867 0.395033 -0.054333
v 0.013867 0.480470 -0.054333
v -0.013867 0.380864 0.000000
v -0.013867 0.494639 0.000000
v 0.013867 0.380864 0.000000
v 0.013867 0.494639 0.000000
v 0.000000 0.345534 -0.090090
v 0.000000 0.529969 -0.090090
v 0.000000 0.345534 -0.090090
v 0.000000 0.529969 -0.090090
v 0.000000 0.363214 -0.114698
v 0.000000 0.512289 -0.114698
v 0.000000 0.363214 -0.114698
v 0.000000 0.512289 -0.114698
v 0.000000 0.422276 -0.142363
v 0.000000 0.453227 -0.142363
v -0.013867 0.423512 -0.054333
v -0.013867 0.451991 -0.054333
v 0.013867 0.451991 -0.054333
v 0.013867 0.423512 -0.054333
v 0.013867 0.456714 0.000000
v 0.013867 0.418789 0.000000
v -0.013867 0.456714 0.000000
v -0.013867 0.418789 0.000000
v -0.009616 0.407012 -0.090090
v -0.009616 0.468490 -0.090090
v 0.009616 0.468490 -0.090090
v 0.009616 0.407012 -0.090090
v -0.004370 0.412906 -0.111492
v -0.004370 0.462597 -0.111492
v 0.004370 0.462597 -0.111492
v 0.004370 0.412906 -0.111492
v 0.000000 0.442910 -0.142363
v 0.000000 0.432593 -0.142363
v 0.050000 0.000000 -0.050000
v 0.050000 0.100000 -0.050000
v 0.050000 0.100000 0.050000
v 0.050000 -0.000000 0.050000
v -0.050000 0.100000 0.050000
v -0.050000 -0.000000 0.050000
v -0.050000 0.100000 -0.050000
v -0.050000 0.000000 -0.050000
v 0.025000 -0.000000 0.025000
v 0.025000 0.000000 -0.025000
v -0.025000 0.000000 -0.025000
v -0.025000 -0.000000 0.025000
v 0.025000 0.020000 -0.025000
v 0.025000 0.020000 0.025000
v -0.025000 0.020000 0.025000
v -0.025000 0.020000 -0.025000
v 0.000000 0.081971 -0.025000
v 0.017678 0.081971 -0.017678
v 0.025000 0.081971 0.000000
v 0.017678 0.081971 0.017678
v -0.000000 0.081971 0.025000
v -0.017678 0.081971 0.017678
v -0.025000 0.081971 -0.000000
v -0.017678 0.081971 -0.017678
v 0.000000 0.505673 -0.019698
v 0.000000 0.500774 -0.025000
v 0.013928 0.505673 -0.013928
v 0.017678 0.500774 -0.017678
v 0.019698 0.505673 0.000000
v 0.025000 0.500774 0.000000
v 0.013928 0.505673 0.013928
v 0.017678 0.500774 0.017678
v -0.000000 0.505673 0.019698
v -0.000000 0.500774 0.025000
v -0.013928 0.505673 0.013928
v -0.017678 0.500774 0.017678
v -0.019698 0.505673 0.000000
v -0.025000 0.500774 -0.000000
v -0.013928 0.505673 -0.013928
v -0.017678 0.500774 -0.017678
vn 1.0000 -0.0000 0.0000
vn 0.0000 -0.0000 1.0000
vn -1.0000 0.0000 0.0000
vn 0.0000 0.0000 -1.0000
vn 0.0000 -1.0000 -0.0000
vn 0.0000 1.0000 0.0000
vn -0.3827 0.0000 -0.9239
vn 0.9239 -0.0000 0.3827
vn 0.3827 -0.0000 0.9239
vn -0.3827 -0.0000 0.9239
vn -0.9239 -0.0000 0.3827
vn -0.9239 0.0000 -0.3827
vn 0.9239 -0.0000 -0.3827
vn 0.2706 0.7071 -0.6533
vn 0.6533 0.7071 -0.2706
vn 0.6533 0.7071 0.2706
vn 0.2706 0.7071 0.6533
vn -0.2706 0.7071 0.6533
vn -0.6533 0.7071 0.2706
vn -0.6533 0.7071 -0.2706
vn -0.2706 0.7071 -0.6533
vn 0.3827 0.0000 -0.9239
vn -0.9828 -0.1051 0.1520
vn 0.0000 -0.9676 0.2523
vn 0.0000 0.9676 0.2523
vn -0.9780 -0.1181 0.1720
vn 0.0000 -0.5856 -0.8106
vn 0.0000 0.5856 -0.8106
vn 0.9828 0.1051 0.1520
vn 0.9780 0.1181 0.1720
vn 0.9853 0.0633 0.1587
vn -0.9853 -0.0633 0.1587
vn -0.9853 0.0633 0.1587
vn -0.9901 0.0000 0.1402
vn 0.9853 -0.0633 0.1587
vn 0.9901 -0.0000 0.1402
vn 0.9780 -0.1181 0.1720
vn 0.9712 -0.0000 0.2381
vn 0.9828 -0.1051 0.1520
vn 0.9930 0.0000 0.1180
vn -0.9780 0.1181 0.1720
vn -0.9712 0.0000 0.2381
vn -0.9828 0.1051 0.1520
vn -0.9930 0.0000 0.1180
vn -0.9828 -0.1051 -0.1520
vn 0.0000 -0.9676 -0.2523
vn 0.0000 0.9676 -0.2523
vn -0.9780 -0.1181 -0.1720
vn 0.0000 -0.5856 0.8106
vn 0.0000 0.5856 0.8106
vn 0.9828 0.1051 -0.1520
vn 0.9780 0.1181 -0.1720
vn 0.9853 0.0633 -0.1587
vn -0.9853 -0.0633 -0.1587
vn -0.9853 0.0633 -0.1587
vn -0.9901 0.0000 -0.1402
vn 0.9853 -0.0633 -0.1587
vn 0.9901 -0.0000 -0.1402
vn 0.9780 -0.1181 -0.1720
vn 0.9712 -0.0000 -0.2381
vn 0.9828 -0.1051 -0.1520
vn 0.9930 0.0000 -0.1180
vn -0.9780 0.1181 -0.1720
vn -0.9712 0.0000 -0.2381
vn -0.9828 0.1051 -0.1520
vn -0.9930 0.0000 -0.1180
usemtl Material.001
s 1
f 65//1 66//1 67//1 68//1
f 68//2 67//2 69//2 70//2
f 70//3 69//3 71//3 72//3
f 66//4 65//4 72//4 71//4
f 73//5 74//5 65//5 68//5
f 74//5 75//5 72//5 65//5
f 76//5 73//5 68//5 70//5
f 75//5 76//5 70//5 72//5
f 69//6 67//6 66//6 71//6
f 77//5 78//5 79//5 80//5
f 76//1 75//1 80//1 79//1
f 75//2 74//2 77//2 80//2
f 73//4 76//4 79//4 78//4
f 74//3 73//3 78//3 77//3
usemtl Material.002
s off
f 88//7 104//7 90//7 81//7
f 83//8 94//8 96//8 84//8
f 84//9 96//9 98//9 85//9
f 85//10 98//10 100//10 86//10
f 86//11 100//11 102//11 87//11
f 87//12 102//12 104//12 88//12
f 82//13 92//13 94//13 83//13
f 91//6 89//6 103//6 101//6 99//6 97//6 95//6 93//6
f 81//5 82//5 83//5 84//5 85//5 86//5 87//5 88//5
f 92//14 90//14 89//14 91//14
f 94//15 92//15 91//15 93//15
f 96//16 94//16 93//16 95//16
f 98//17 96//17 95//17 97//17
f 100//18 98//18 97//18 99//18
f 102//19 100//19 99//19 101//19
f 104//20 102//20 101//20 103//20
f 90//21 104//21 103//21 89//21
f 81//22 90//22 92//22 82//22
usemtl Material.003
f 51//1 36//1 4//1 17//1
f 15//23 1//23 5//23 19//23
f 33//24 35//24 3//24 1//24
f 36//25 34//25 2//25 4//25
f 16//3 2//3 34//3 53//3
f 19//26 5//26 9//26 23//26
f 1//27 3//27 7//27 5//27
f 4//28 2//28 6//28 8//28
f 17//29 4//29 8//29 21//29
f 12//2 10//2 14//2
f 8//2 6//2 10//2 12//2
f 21//30 8//30 12//30 25//30
f 5//2 7//2 11//2 9//2
f 25//31 12//31 14//31 27//31
f 9//2 11//2 13//2
f 23//32 9//32 13//32 28//32
f 10//33 24//33 27//33 14//33
f 24//34 23//34 28//34 27//34
f 11//35 26//35 28//35 13//35
f 26//36 25//36 27//36 28//36
f 7//37 22//37 26//37 11//37
f 22//38 21//38 25//38 26//38
f 3//39 18//39 22//39 7//39
f 18//40 17//40 21//40 22//40
f 6//41 20//41 24//41 10//41
f 20//42 19//42 23//42 24//42
f 1//3 15//3 54//3 33//3
f 15//3 16//3 53//3 54//3
f 2//43 16//43 20//43 6//43
f 16//44 15//44 19//44 20//44
f 35//1 52//1 18//1 3//1
f 52//1 51//1 17//1 18//1
f 51//1 49//1 32//1 36//1
f 47//45 55//45 37//45 29//45
f 33//46 29//46 31//46 35//46
f 36//47 32//47 30//47 34//47
f 48//3 53//3 34//3 30//3
f 55//48 59//48 41//48 37//48
f 29//49 37//49 39//49 31//49
f 32//50 40//50 38//50 30//50
f 49//51 57//51 40//51 32//51
f 44//2 46//2 42//2
f 40//2 44//2 42//2 38//2
f 57//52 61//52 44//52 40//52
f 37//2 41//2 43//2 39//2
f 61//53 63//53 46//53 44//53
f 41//2 45//2 43//2
f 59//54 64//54 45//54 41//54
f 42//55 46//55 63//55 60//55
f 60//56 63//56 64//56 59//56
f 43//57 45//57 64//57 62//57
f 62//58 64//58 63//58 61//58
f 39//59 43//59 62//59 58//59
f 58//60 62//60 61//60 57//60
f 31//61 39//61 58//61 50//61
f 50//62 58//62 57//62 49//62
f 38//63 42//63 60//63 56//63
f 56//64 60//64 59//64 55//64
f 29//3 33//3 54//3 47//3
f 47//3 54//3 53//3 48//3
f 30//65 38//65 56//65 48//65
f 48//66 56//66 55//66 47//66
f 35//1 31//1 50//1 52//1
f 52//1 50//1 49//1 51//1
