# Blender v2.78 (sub 0) OBJ File: ''
# www.blender.org
mtllib 1x1.mtl
o Cube
v 0.025000 -0.000000 -0.025000
v 0.025000 -0.000000 0.025000
v -0.025000 -0.000000 0.025000
v -0.025000 -0.000000 -0.025000
v 0.025000 0.100000 -0.025000
v 0.025000 0.100000 0.025000
v -0.025000 0.100000 0.025000
v -0.025000 0.100000 -0.025000
v 0.050000 -0.000000 -0.050000
v 0.050000 -0.000000 0.050000
v -0.050000 -0.000000 -0.050000
v -0.050000 -0.000000 0.050000
v 0.050000 0.100000 -0.050000
v 0.050000 0.100000 0.050000
v -0.050000 0.100000 -0.050000
v -0.050000 0.100000 0.050000
v 0.025000 0.020000 -0.025000
v 0.025000 0.020000 0.025000
v -0.025000 0.020000 -0.025000
v -0.025000 0.020000 0.025000
v 0.025000 0.120000 -0.025000
v 0.025000 0.120000 0.025000
v -0.025000 0.120000 -0.025000
v -0.025000 0.120000 0.025000
vn 0.0000 0.0000 -1.0000
vn -1.0000 0.0000 -0.0000
vn 1.0000 0.0000 0.0000
vn -0.0000 -0.0000 1.0000
vn 0.0000 -1.0000 0.0000
vn 0.0000 1.0000 -0.0000
usemtl Material
s off
f 5//1 8//1 23//1 21//1
f 8//2 7//2 24//2 23//2
f 9//3 13//3 14//3 10//3
f 10//4 14//4 16//4 12//4
f 12//2 16//2 15//2 11//2
f 13//1 9//1 11//1 15//1
f 2//5 1//5 9//5 10//5
f 1//5 4//5 11//5 9//5
f 3//5 2//5 10//5 12//5
f 4//5 3//5 12//5 11//5
f 5//6 6//6 14//6 13//6
f 8//6 5//6 13//6 15//6
f 6//6 7//6 16//6 14//6
f 7//6 8//6 15//6 16//6
f 17//5 18//5 20//5 19//5
f 21//6 23//6 24//6 22//6
f 3//3 4//3 19//3 20//3
f 4//4 1//4 17//4 19//4
f 7//4 6//4 22//4 24//4
f 6//3 5//3 21//3 22//3
f 2//1 3//1 20//1 18//1
f 1//2 2//2 18//2 17//2
