# Blender v2.78 (sub 0) OBJ File: ''
# www.blender.org
mtllib FightingArena.mtl
o Plane
v -3.373209 1.143824 -10.119630
v -3.353271 1.143824 -10.059814
v 3.353271 1.143824 -10.059814
v 3.373210 1.143824 -10.119629
v 10.119630 1.143824 2.023926
v 10.059814 1.143824 2.011963
v 10.059814 1.143824 6.035890
v 10.119629 1.143824 6.071778
v -7.454793 1.143824 10.119630
v -7.410730 1.143824 10.059814
v -10.059814 1.143824 10.059814
v 10.119630 1.143824 -2.023926
v 10.059814 1.143824 -2.011963
v -10.059814 1.143824 6.035890
v -10.119629 1.143824 6.071778
v 7.454793 1.143824 10.119630
v 7.410730 1.143824 10.059814
v 3.353271 1.143824 10.059814
v 3.373210 1.143824 10.119629
v -7.454793 1.143824 -10.119630
v -7.410730 1.143824 -10.059814
v 10.119630 1.143824 -6.071778
v 10.059814 1.143824 -6.035890
v 10.059814 1.143824 10.059814
v -10.119630 1.143824 -6.071778
v -10.059814 1.143824 -6.035890
v -10.059814 1.143824 -10.059814
v 10.059814 1.143824 -10.059814
v -10.119630 1.143824 -2.023926
v -10.059814 1.143824 -2.011963
v 7.454793 1.143824 -10.119630
v 7.410730 1.143824 -10.059814
v -3.373209 1.143824 10.119630
v -3.353271 1.143824 10.059814
v -10.119630 1.143824 2.023926
v -10.059814 1.143824 2.011963
v -3.208303 6.766849 -9.624910
v -3.189340 6.766849 -9.568019
v 3.189340 6.766849 -9.568019
v 3.208303 6.766849 -9.624909
v 9.624910 6.766849 1.924982
v 9.568019 6.766849 1.913604
v 9.568019 6.766849 5.740812
v 9.624909 6.766849 5.774947
v -7.090350 6.766849 9.624910
v -7.048440 6.766849 9.568019
v -9.568019 6.766849 9.568019
v 9.624910 6.766849 -1.924982
v 9.568019 6.766849 -1.913604
v -9.568019 6.766849 5.740812
v -9.624909 6.766849 5.774947
v 7.090350 6.766849 9.624910
v 7.048440 6.766849 9.568019
v 3.189340 6.766849 9.568019
v 3.208303 6.766849 9.624909
v -7.090350 6.766849 -9.624910
v -7.048440 6.766849 -9.568019
v 9.624910 6.766849 -5.774946
v 9.568019 6.766849 -5.740812
v 9.568019 6.766849 9.568019
v -9.624910 6.766849 -5.774946
v -9.568019 6.766849 -5.740812
v -9.568019 6.766849 -9.568019
v 9.568019 6.766849 -9.568019
v -9.624910 6.766849 -1.924982
v -9.568019 6.766849 -1.913604
v 7.090350 6.766849 -9.624910
v 7.048440 6.766849 -9.568019
v -3.208303 6.766849 9.624910
v -3.189340 6.766849 9.568019
v -9.624910 6.766849 1.924982
v -9.568019 6.766849 1.913604
v -9.952958 1.143824 10.119629
v -10.119629 1.143824 9.952958
v -10.016739 1.143824 10.106941
v -10.070811 1.143824 10.070811
v -10.106941 1.143824 10.016739
v 10.119630 1.143824 9.952959
v 9.952959 1.143824 10.119630
v 10.106943 1.143824 10.016741
v 10.070812 1.143824 10.070812
v 10.016741 1.143824 10.106943
v -10.119629 1.143824 -9.952958
v -9.952958 1.143824 -10.119629
v -10.106941 1.143824 -10.016739
v -10.070811 1.143824 -10.070811
v -10.016739 1.143824 -10.106941
v 9.952959 1.143824 -10.119630
v 10.119630 1.143824 -9.952959
v 10.016741 1.143824 -10.106943
v 10.070812 1.143824 -10.070812
v 10.106943 1.143824 -10.016741
v -9.624909 6.766849 9.466387
v -9.466387 6.766849 9.624909
v -9.612843 6.766849 9.527050
v -9.578478 6.766849 9.578478
v -9.527050 6.766849 9.612843
v 9.466388 6.766849 9.624910
v 9.624910 6.766849 9.466388
v 9.527051 6.766849 9.612844
v 9.578480 6.766849 9.578480
v 9.612844 6.766849 9.527051
v -9.466387 6.766849 -9.624909
v -9.624909 6.766849 -9.466387
v -9.527050 6.766849 -9.612843
v -9.578478 6.766849 -9.578478
v -9.612843 6.766849 -9.527050
v 9.624910 6.766849 -9.466388
v 9.466388 6.766849 -9.624910
v 9.612844 6.766849 -9.527051
v 9.578480 6.766849 -9.578480
v 9.527051 6.766849 -9.612844
v -10.000000 1.143824 10.000000
v 10.000000 1.143824 10.000000
v -10.000000 1.143824 -10.000000
v 10.000000 1.143824 -10.000000
v -9.282503 0.000000 -9.282503
v -9.282503 0.000000 9.282503
v 9.282503 0.000000 9.282503
v 9.282503 0.000000 -9.282503
v -9.282503 0.000000 -5.569502
v -9.282503 0.000000 -1.856501
v -9.282503 0.000000 1.856501
v -9.282503 0.000000 5.569502
v 9.282503 0.000000 5.569502
v 9.282503 0.000000 1.856501
v 9.282503 0.000000 -1.856501
v 9.282503 0.000000 -5.569502
v -10.000000 1.143824 -6.000000
v -10.000000 1.143824 -2.000000
v -10.000000 1.143824 2.000000
v -10.000000 1.143824 6.000000
v 10.000000 1.143824 6.000000
v 10.000000 1.143824 2.000000
v 10.000000 1.143824 -2.000000
v 10.000000 1.143824 -6.000000
v -3.094168 0.000000 9.282503
v 3.094168 0.000000 9.282503
v 3.094168 0.000000 -9.282503
v -3.094168 0.000000 -9.282503
v -3.333333 1.143824 10.000000
v 3.333333 1.143824 10.000000
v 3.333333 1.143824 -10.000000
v -3.333333 1.143824 -10.000000
v 3.094168 0.000000 5.569502
v -3.094168 0.000000 5.569502
v 3.094168 0.000000 1.856501
v -3.094168 0.000000 1.856501
v 3.094168 0.000000 -1.856501
v -3.094168 0.000000 -1.856501
v 3.094168 0.000000 -5.569502
v -3.094168 0.000000 -5.569502
v 6.888335 0.000000 9.282503
v 7.366666 1.143824 10.000000
v 6.888335 0.000000 -9.282503
v 7.366666 1.143824 -10.000000
v 6.888335 0.000000 5.569502
v 6.888335 0.000000 1.856501
v 6.888335 0.000000 -1.856501
v 6.888335 0.000000 -5.569502
v -6.888335 0.000000 -9.282503
v -7.366666 1.143824 -10.000000
v -6.888335 0.000000 5.569502
v -6.888335 0.000000 1.856501
v -6.888335 0.000000 -1.856501
v -6.888335 0.000000 -5.569502
v -6.888335 0.000000 9.282503
v -7.366666 1.143824 10.000000
v -10.179444 1.143824 10.179444
v 10.179444 1.143824 10.179444
v -10.179444 1.143824 -10.179444
v 10.179444 1.143824 -10.179444
v -10.179444 1.143824 -6.107667
v -10.179444 1.143824 -2.035889
v -10.179444 1.143824 2.035889
v -10.179444 1.143824 6.107667
v 10.179444 1.143824 6.107667
v 10.179444 1.143824 2.035889
v 10.179444 1.143824 -2.035889
v 10.179444 1.143824 -6.107667
v -3.393148 1.143824 10.179444
v 3.393148 1.143824 10.179444
v 3.393148 1.143824 -10.179444
v -3.393148 1.143824 -10.179444
v 7.498857 1.143824 10.179444
v 7.498857 1.143824 -10.179444
v -7.498857 1.143824 -10.179444
v -7.498857 1.143824 10.179444
v -10.179444 -0.421826 10.179444
v 10.179444 -0.421826 10.179444
v -10.179444 -0.421826 -10.179444
v 10.179444 -0.421826 -10.179444
v -10.179444 -0.421826 -6.107667
v -10.179444 -0.421826 -2.035889
v -10.179444 -0.421826 2.035889
v -10.179444 -0.421826 6.107667
v 10.179444 -0.421826 6.107667
v 10.179444 -0.421826 2.035889
v 10.179444 -0.421826 -2.035889
v 10.179444 -0.421826 -6.107667
v -3.393148 -0.421826 10.179444
v 3.393148 -0.421826 10.179444
v 3.393148 -0.421826 -10.179444
v -3.393148 -0.421826 -10.179444
v 7.498857 -0.421826 10.179444
v 7.498857 -0.421826 -10.179444
v -7.498857 -0.421826 -10.179444
v -7.498857 -0.421826 10.179444
v -3.373209 1.143824 -10.119630
v -3.353271 1.143824 -10.059814
v 3.353271 1.143824 -10.059814
v 3.373210 1.143824 -10.119629
v 10.119630 1.143824 2.023926
v 10.059814 1.143824 2.011963
v 10.059814 1.143824 6.035890
v 10.119629 1.143824 6.071778
v -7.454793 1.143824 10.119630
v -7.410730 1.143824 10.059814
v -10.059814 1.143824 10.059814
v -10.119629 1.143824 10.119629
v 10.119630 1.143824 -2.023926
v 10.059814 1.143824 -2.011963
v -10.059814 1.143824 6.035890
v -10.119629 1.143824 6.071778
v 7.454793 1.143824 10.119630
v 7.410730 1.143824 10.059814
v 3.353271 1.143824 10.059814
v 3.373210 1.143824 10.119629
v -7.454793 1.143824 -10.119630
v -7.410730 1.143824 -10.059814
v 10.119630 1.143824 -6.071778
v 10.059814 1.143824 -6.035890
v 10.119630 1.143824 10.119630
v 10.059814 1.143824 10.059814
v -10.119630 1.143824 -6.071778
v -10.059814 1.143824 -6.035890
v -10.059814 1.143824 -10.059814
v -10.119629 1.143824 -10.119629
v 10.119630 1.143824 -10.119630
v 10.059814 1.143824 -10.059814
v -10.119630 1.143824 -2.023926
v -10.059814 1.143824 -2.011963
v 7.454793 1.143824 -10.119630
v 7.410730 1.143824 -10.059814
v -3.373209 1.143824 10.119630
v -3.353271 1.143824 10.059814
v -10.119630 1.143824 2.023926
v -10.059814 1.143824 2.011963
vt 0.0017 0.0000
vt 0.0981 0.0000
vt 0.0981 1.0000
vt 0.0017 1.0000
vt 0.0663 0.0000
vt 0.1670 0.0000
vt 0.1670 1.0000
vt 0.0663 1.0000
vt 0.3325 0.0000
vt 0.1651 0.0000
vt 0.1651 1.0000
vt 0.3325 1.0000
vt 0.0005 0.0000
vt 0.0005 1.0000
vt 0.7010 0.0000
vt 0.6005 0.0000
vt 0.6005 1.0000
vt 0.7010 1.0000
vt 0.3335 0.0000
vt 0.3335 1.0000
vt 0.5662 0.0000
vt 0.6675 0.0000
vt 0.6675 1.0000
vt 0.5662 1.0000
vt 0.5999 0.0000
vt 0.6998 0.0000
vt 0.6998 1.0000
vt 0.5999 1.0000
vt 0.9019 0.0000
vt 0.8015 0.0000
vt 0.8015 1.0000
vt 0.9019 1.0000
vt 0.6665 0.0000
vt 0.5658 0.0000
vt 0.5658 1.0000
vt 0.6665 1.0000
vt 0.9983 0.0000
vt 0.9983 1.0000
vt 0.7997 0.0000
vt 0.8996 0.0000
vt 0.8996 1.0000
vt 0.7997 1.0000
vt 0.1985 0.0000
vt 0.2990 0.0000
vt 0.2990 1.0000
vt 0.1985 1.0000
vt 0.9995 0.0000
vt 0.9337 0.0000
vt 0.9337 1.0000
vt 0.9995 1.0000
vt 0.9363 0.0000
vt 0.9983 0.0000
vt 0.9983 1.0000
vt 0.9363 1.0000
vt 0.3002 0.0000
vt 0.2003 0.0000
vt 0.2003 1.0000
vt 0.3002 1.0000
vt 0.4959 0.0000
vt 0.4338 0.0000
vt 0.4338 1.0000
vt 0.4959 1.0000
vt 0.5000 0.0000
vt 0.5000 1.0000
vt 0.8349 0.0000
vt 0.8349 1.0000
vt 0.1004 0.0000
vt 0.1004 1.0000
vt 0.0637 0.0000
vt 0.0637 1.0000
vt 0.4342 0.0000
vt 0.5000 0.0000
vt 0.5000 1.0000
vt 0.4342 1.0000
vt 0.0017 0.0000
vt 0.0017 1.0000
vt 0.8330 0.0000
vt 0.8330 1.0000
vt 0.5041 0.0000
vt 0.5041 1.0000
vt 0.4001 0.0000
vt 0.4001 1.0000
vt 0.5041 0.0000
vt 0.5041 1.0000
vt 0.3995 0.0000
vt 0.3995 1.0000
vt 0.9996 1.0000
vt 0.9996 0.0000
vt 1.0000 1.0000
vt 1.0000 0.0000
vt 0.9996 1.0000
vt 0.9996 0.0000
vt 0.4959 1.0000
vt 0.4959 0.0000
vt 0.4978 0.0000
vt 0.4978 1.0000
vt 0.5000 0.0000
vt 0.5000 1.0000
vt 0.5022 0.0000
vt 0.5022 1.0000
vt 0.0004 0.0000
vt 0.0004 1.0000
vt 0.0000 0.0000
vt 0.0000 1.0000
vt 0.0004 0.0000
vt 0.0004 1.0000
vt 0.5022 0.0000
vt 0.5022 1.0000
vt 0.5000 0.0000
vt 0.5000 1.0000
vt 0.4978 0.0000
vt 0.4978 1.0000
vt 0.7764 0.4857
vt 0.9608 0.4857
vt 0.9965 0.5528
vt 0.7978 0.5527
vt 0.8378 0.3400
vt 0.9561 0.3400
vt 0.9916 0.4068
vt 0.8614 0.4067
vt 0.2236 0.6270
vt 0.0392 0.6270
vt 0.0035 0.5599
vt 0.2022 0.5599
vt 0.8378 0.4126
vt 0.9561 0.4126
vt 0.9916 0.4794
vt 0.8614 0.4794
vt 0.9613 0.6270
vt 0.7769 0.6270
vt 0.7982 0.5599
vt 0.9969 0.5599
vt 0.5924 0.6270
vt 0.5996 0.5599
vt 0.4080 0.6270
vt 0.4009 0.5599
vt 0.0387 0.4854
vt 0.2232 0.4854
vt 0.2018 0.5525
vt 0.0031 0.5524
vt 0.4076 0.4855
vt 0.4004 0.5526
vt 0.5920 0.4856
vt 0.5991 0.5527
vt 0.1569 0.4126
vt 0.3444 0.4126
vt 0.3326 0.4794
vt 0.1332 0.4794
vt 0.6503 0.4126
vt 0.6621 0.4794
vt 0.1569 0.3397
vt 0.3444 0.3397
vt 0.3326 0.4065
vt 0.1332 0.4064
vt 0.6503 0.3399
vt 0.6621 0.4066
vt 0.0386 0.3396
vt 0.0031 0.4063
vt 0.0385 0.4126
vt 0.0031 0.4794
vt 0.3330 0.0001
vt 0.6620 0.0001
vt 0.6640 0.0059
vt 0.3320 0.0059
vt 0.4007 0.2456
vt 0.2021 0.2456
vt 0.2001 0.2422
vt 0.4000 0.2422
vt 0.1334 0.1622
vt 0.0030 0.1622
vt 0.0001 0.1593
vt 0.1312 0.1593
vt 0.5994 0.2456
vt 0.6000 0.2422
vt 0.0031 0.2459
vt 0.2018 0.2459
vt 0.2001 0.2493
vt 0.0001 0.2493
vt 0.8626 0.1627
vt 0.6630 0.1627
vt 0.6640 0.1593
vt 0.8648 0.1593
vt 0.1334 0.0024
vt 0.3330 0.0024
vt 0.1312 0.0059
vt 0.7982 0.2456
vt 0.7999 0.2422
vt 0.9929 0.1622
vt 0.8626 0.1622
vt 0.9959 0.1593
vt 0.7979 0.2459
vt 0.9964 0.2459
vt 0.9999 0.2493
vt 0.7999 0.2493
vt 0.9969 0.2456
vt 0.9999 0.2422
vt 0.5993 0.2459
vt 0.6000 0.2493
vt 0.8626 0.0030
vt 0.9929 0.0030
vt 0.9959 0.0059
vt 0.8648 0.0059
vt 0.0030 0.0030
vt 0.1334 0.0030
vt 0.0001 0.0059
vt 0.3332 0.1627
vt 0.1338 0.1627
vt 0.3320 0.1593
vt 0.4006 0.2459
vt 0.4000 0.2493
vt 0.6630 0.1650
vt 0.3340 0.1650
vt 0.6628 0.0024
vt 0.8622 0.0024
vt 0.0036 0.2456
vt 0.0001 0.2422
vt 0.7999 0.3262
vt 0.6000 0.3262
vt 0.3320 0.0827
vt 0.6640 0.0827
vt 0.4000 0.3262
vt 0.8648 0.0825
vt 0.6640 0.0825
vt 0.2001 0.3262
vt 0.0001 0.3262
vt 0.3320 0.0825
vt 0.0001 0.1653
vt 0.2001 0.1653
vt 0.8648 0.0827
vt 0.9959 0.0827
vt 0.4000 0.1653
vt 0.7999 0.1653
vt 0.9999 0.1653
vt 0.9959 0.0825
vt 0.6000 0.1653
vt 0.1312 0.0825
vt 0.0001 0.0825
vt 0.9999 0.3262
vt 0.0001 0.0827
vt 0.1312 0.0827
vt 0.0001 0.5565
vt 0.2002 0.5565
vt 0.8640 0.4828
vt 0.6632 0.4828
vt 0.3998 0.5560
vt 0.2000 0.5560
vt 0.6640 0.4124
vt 0.3316 0.4122
vt 0.5998 0.5561
vt 0.3998 0.5561
vt 0.8640 0.4102
vt 0.6632 0.4101
vt 0.1310 0.4823
vt 0.0001 0.4823
vt 0.9945 0.4823
vt 0.8636 0.4823
vt 0.7999 0.5562
vt 0.8000 0.5565
vt 0.9999 0.5565
vt 0.9999 0.5562
vt 0.7998 0.5562
vt 0.1310 0.4093
vt 0.0001 0.4093
vt 0.6002 0.5565
vt 0.3316 0.4828
vt 0.1310 0.4828
vt 0.3316 0.4099
vt 0.1310 0.4098
vt 0.2000 0.5559
vt 0.0001 0.5559
vt 0.4002 0.5565
vt 0.9945 0.4098
vt 0.8636 0.4097
vt 0.2001 0.5565
vt 0.6640 0.4852
vt 0.3316 0.4851
vt 0.0000 0.0000
vt 0.0000 0.0000
vt 0.0000 0.0000
vt 0.0000 0.0000
vt 0.0000 0.0000
vt 0.0000 0.0000
vt 0.0000 0.0000
vt 0.0000 0.0000
vt 0.8710 0.7999
vt 0.9999 0.7999
vt 0.9999 0.9999
vt 0.8710 0.9999
vt 0.8710 0.0001
vt 0.9999 0.0001
vt 0.9999 0.2001
vt 0.8710 0.2001
vt 0.9999 0.4000
vt 0.8710 0.4000
vt 0.9999 0.6000
vt 0.8710 0.6000
vt 0.1290 0.6000
vt 0.3334 0.6000
vt 0.3334 0.7999
vt 0.1290 0.7999
vt 0.6666 0.6000
vt 0.6666 0.7999
vt 0.3334 0.4000
vt 0.6666 0.4000
vt 0.1290 0.2001
vt 0.3334 0.2001
vt 0.1290 0.4000
vt 0.6666 0.2001
vt 0.1290 0.0001
vt 0.3334 0.0001
vt 0.6666 0.0001
vt 0.3334 0.9999
vt 0.1290 0.9999
vt 0.6666 0.9999
vt 0.0001 0.7999
vt 0.0001 0.9999
vt 0.0001 0.0001
vt 0.0001 0.2001
vt 0.0001 0.4000
vt 0.0001 0.6000
vn -0.9962 0.0876 -0.0000
vn 0.0000 -0.0871 0.9962
vn 0.0000 0.0876 -0.9962
vn 0.9962 0.0876 0.0000
vn 0.0000 0.0876 0.9962
vn -0.9962 -0.0871 0.0000
vn 0.0000 -0.0871 -0.9962
vn 0.9962 -0.0871 0.0000
vn 0.9756 0.1026 0.1941
vn 0.8254 0.1206 0.5515
vn 0.5515 0.1206 0.8254
vn 0.1941 0.1026 0.9756
vn -0.9756 0.1026 0.1941
vn -0.8254 0.1206 0.5515
vn -0.5515 0.1206 0.8254
vn -0.1941 0.1026 0.9756
vn -0.1941 0.1026 -0.9756
vn -0.5515 0.1206 -0.8254
vn -0.8254 0.1206 -0.5515
vn -0.9756 0.1026 -0.1941
vn 0.9756 0.1026 -0.1941
vn 0.8254 0.1206 -0.5515
vn 0.5515 0.1206 -0.8254
vn 0.1941 0.1026 -0.9756
vn 0.8471 0.5314 0.0000
vn 0.0000 0.5314 -0.8471
vn -0.8471 0.5314 0.0000
vn 0.0000 0.5314 0.8471
vn 0.0000 1.0000 0.0000
vn -1.0000 0.0000 0.0000
vn 0.0000 0.0000 1.0000
vn 0.0000 0.0000 -1.0000
vn 1.0000 0.0000 0.0000
vn 0.0000 -1.0000 0.0000
usemtl Material.001
s off
f 83/1/1 25/2/1 61/3/1 104/4/1
f 21/5/2 2/6/2 38/7/2 57/8/2
f 4/9/3 1/10/3 37/11/3 40/12/3
f 27/13/2 21/5/2 57/8/2 63/14/2
f 12/15/4 22/16/4 58/17/4 48/18/4
f 2/6/2 3/19/2 39/20/2 38/7/2
f 9/21/5 33/22/5 69/23/5 45/24/5
f 23/25/6 13/26/6 49/27/6 59/28/6
f 8/29/4 5/30/4 41/31/4 44/32/4
f 34/33/7 10/34/7 46/35/7 70/36/7
f 78/37/4 8/29/4 44/32/4 99/38/4
f 6/39/6 7/40/6 43/41/6 42/42/6
f 29/43/1 35/44/1 71/45/1 65/46/1
f 24/47/7 17/48/7 53/49/7 60/50/7
f 16/51/5 79/52/5 98/53/5 52/54/5
f 36/55/8 30/56/8 66/57/8 72/58/8
f 88/59/3 31/60/3 67/61/3 109/62/3
f 10/34/7 11/63/7 47/64/7 46/35/7
f 33/22/5 19/65/5 55/66/5 69/23/5
f 26/67/8 27/13/8 63/14/8 62/68/8
f 7/40/6 24/47/6 60/50/6 43/41/6
f 1/10/3 20/69/3 56/70/3 37/11/3
f 32/71/2 28/72/2 64/73/2 68/74/2
f 20/69/3 84/75/3 103/76/3 56/70/3
f 17/48/7 18/77/7 54/78/7 53/49/7
f 22/16/4 89/79/4 108/80/4 58/17/4
f 3/19/2 32/71/2 68/74/2 39/20/2
f 19/65/5 16/51/5 52/54/5 55/66/5
f 30/56/8 26/67/8 62/68/8 66/57/8
f 31/60/3 4/9/3 40/12/3 67/61/3
f 11/63/8 14/81/8 50/82/8 47/64/8
f 25/2/1 29/43/1 65/46/1 61/3/1
f 14/81/8 36/55/8 72/58/8 50/82/8
f 73/83/5 9/21/5 45/24/5 94/84/5
f 28/72/6 23/25/6 59/28/6 64/73/6
f 35/44/1 15/85/1 51/86/1 71/45/1
f 13/26/6 6/39/6 42/42/6 49/27/6
f 18/77/7 34/33/7 70/36/7 54/78/7
f 5/30/4 12/15/4 48/18/4 41/31/4
f 78/37/9 99/38/9 102/87/9 80/88/9
f 80/88/10 102/87/10 101/89/10 81/90/10
f 81/90/11 101/89/11 100/91/11 82/92/11
f 82/92/12 100/91/12 98/53/12 79/52/12
f 93/93/13 74/94/13 77/95/13 95/96/13
f 95/96/14 77/95/14 76/97/14 96/98/14
f 96/98/15 76/97/15 75/99/15 97/100/15
f 97/100/16 75/99/16 73/83/16 94/84/16
f 103/76/17 84/75/17 87/101/17 105/102/17
f 105/102/18 87/101/18 86/103/18 106/104/18
f 106/104/19 86/103/19 85/105/19 107/106/19
f 107/106/20 85/105/20 83/1/20 104/4/20
f 108/80/21 89/79/21 92/107/21 110/108/21
f 110/108/22 92/107/22 91/109/22 111/110/22
f 111/110/23 91/109/23 90/111/23 112/112/23
f 112/112/24 90/111/24 88/59/24 109/62/24
f 15/85/1 74/94/1 93/93/1 51/86/1
usemtl Material.002
f 121/113/25 117/114/25 115/115/25 129/116/25
f 167/117/26 118/118/26 113/119/26 168/120/26
f 125/121/27 119/122/27 114/123/27 133/124/27
f 155/125/28 120/126/28 116/127/28 156/128/28
f 120/129/27 128/130/27 136/131/27 116/132/27
f 128/130/27 127/133/27 135/134/27 136/131/27
f 127/133/27 126/135/27 134/136/27 135/134/27
f 126/135/27 125/121/27 133/124/27 134/136/27
f 118/137/25 124/138/25 132/139/25 113/140/25
f 124/138/25 123/141/25 131/142/25 132/139/25
f 123/141/25 122/143/25 130/144/25 131/142/25
f 122/143/25 121/113/25 129/116/25 130/144/25
f 161/145/28 140/146/28 144/147/28 162/148/28
f 140/146/28 139/149/28 143/150/28 144/147/28
f 153/151/26 138/152/26 142/153/26 154/154/26
f 138/152/26 137/155/26 141/156/26 142/153/26
f 119/157/26 153/151/26 154/154/26 114/158/26
f 139/149/28 155/125/28 156/128/28 143/150/28
f 117/159/28 161/145/28 162/148/28 115/160/28
f 137/155/26 167/117/26 168/120/26 141/156/26
f 209/161/29 212/162/29 183/163/29 184/164/29
f 213/165/29 216/166/29 177/167/29 178/168/29
f 217/169/29 220/170/29 169/171/29 188/172/29
f 221/173/29 213/165/29 178/168/29 179/174/29
f 220/175/29 224/176/29 176/177/29 169/178/29
f 225/179/29 228/180/29 182/181/29 185/182/29
f 229/183/29 209/184/29 184/164/29 187/185/29
f 231/186/29 221/173/29 179/174/29 180/187/29
f 233/188/29 225/189/29 185/182/29 170/190/29
f 235/191/29 238/192/29 171/193/29 173/194/29
f 239/195/29 231/186/29 180/187/29 172/196/29
f 241/197/29 235/191/29 173/194/29 174/198/29
f 243/199/29 239/200/29 172/201/29 186/202/29
f 238/203/29 229/204/29 187/185/29 171/205/29
f 245/206/29 217/207/29 188/172/29 181/208/29
f 247/209/29 241/197/29 174/198/29 175/210/29
f 228/211/29 245/212/29 181/208/29 182/181/29
f 224/176/29 247/209/29 175/210/29 176/177/29
f 212/213/29 243/214/29 186/202/29 183/163/29
f 216/166/29 233/215/29 170/216/29 177/167/29
f 174/198/30 173/194/30 193/217/30 194/218/30
f 182/181/31 181/208/31 201/219/31 202/220/31
f 175/210/30 174/198/30 194/218/30 195/221/30
f 183/163/32 186/202/32 206/222/32 203/223/32
f 176/177/30 175/210/30 195/221/30 196/224/30
f 169/178/30 176/177/30 196/224/30 189/225/30
f 184/164/32 183/163/32 203/223/32 204/226/32
f 177/167/33 170/216/33 190/227/33 197/228/33
f 170/190/31 185/182/31 205/229/31 190/230/31
f 185/182/31 182/181/31 202/220/31 205/229/31
f 178/168/33 177/167/33 197/228/33 198/231/33
f 172/196/33 180/187/33 200/232/33 192/233/33
f 186/202/32 172/201/32 192/234/32 206/222/32
f 179/174/33 178/168/33 198/231/33 199/235/33
f 171/205/32 187/185/32 207/236/32 191/237/32
f 187/185/32 184/164/32 204/226/32 207/236/32
f 180/187/33 179/174/33 199/235/33 200/232/33
f 173/194/30 171/193/30 191/238/30 193/217/30
f 188/172/31 169/171/31 189/239/31 208/240/31
f 181/208/31 188/172/31 208/240/31 201/219/31
f 133/124/29 114/123/29 234/241/29 215/242/29
f 143/150/29 156/128/29 244/243/29 211/244/29
f 132/139/29 131/142/29 248/245/29 223/246/29
f 142/153/29 141/156/29 246/247/29 227/248/29
f 131/142/29 130/144/29 242/249/29 248/250/29
f 141/156/29 168/120/29 218/251/29 246/252/29
f 115/160/29 162/148/29 230/253/29 237/254/29
f 156/128/29 116/127/29 240/255/29 244/256/29
f 130/144/29 129/116/29 236/257/29 242/249/29
f 116/132/29 136/131/29 232/258/29 240/259/29
f 129/116/29 115/115/29 237/260/29 236/261/29
f 114/158/29 154/154/29 226/262/29 234/263/29
f 136/131/29 135/134/29 222/264/29 232/258/29
f 162/148/29 144/147/29 210/265/29 230/266/29
f 154/154/29 142/153/29 227/267/29 226/268/29
f 113/140/29 132/139/29 223/269/29 219/270/29
f 135/134/29 134/136/29 214/271/29 222/264/29
f 168/120/29 113/119/29 219/272/29 218/273/29
f 134/136/29 133/124/29 215/274/29 214/271/29
f 144/147/29 143/150/29 211/275/29 210/276/29
f 220/277/29 219/278/29 237/279/29 238/280/29
f 234/281/29 233/282/29 239/283/29 240/284/29
f 234/281/31 240/284/31 232/258/31 222/264/31 214/271/31 215/274/31
f 248/250/34 242/249/34 236/257/34 237/260/34 219/278/34 223/269/34
f 239/283/29 238/280/29 237/279/29 240/284/29
f 219/278/29 220/277/29 233/282/29 234/281/29
usemtl Material.004
f 160/285/29 128/286/29 120/287/29 155/288/29
f 153/289/29 119/290/29 125/291/29 157/292/29
f 157/292/29 125/291/29 126/293/29 158/294/29
f 158/294/29 126/293/29 127/295/29 159/296/29
f 159/296/29 127/295/29 128/286/29 160/285/29
f 165/297/29 150/298/29 152/299/29 166/300/29
f 150/298/29 149/301/29 151/302/29 152/299/29
f 148/303/29 147/304/29 149/301/29 150/298/29
f 163/305/29 146/306/29 148/303/29 164/307/29
f 146/306/29 145/308/29 147/304/29 148/303/29
f 167/309/29 137/310/29 146/306/29 163/305/29
f 137/310/29 138/311/29 145/308/29 146/306/29
f 166/300/29 152/299/29 140/312/29 161/313/29
f 152/299/29 151/302/29 139/314/29 140/312/29
f 149/301/29 159/296/29 160/285/29 151/302/29
f 145/308/29 157/292/29 158/294/29 147/304/29
f 138/311/29 153/289/29 157/292/29 145/308/29
f 151/302/29 160/285/29 155/288/29 139/314/29
f 121/315/29 166/300/29 161/313/29 117/316/29
f 118/317/29 167/309/29 163/305/29 124/318/29
f 124/318/29 163/305/29 164/307/29 123/319/29
f 123/319/29 164/307/29 165/297/29 122/320/29
f 122/320/29 165/297/29 166/300/29 121/315/29
f 150/298/29 165/297/29 164/307/29 148/303/29
f 147/304/29 158/294/29 159/296/29 149/301/29
