# Blender v2.78 (sub 0) OBJ File: ''
# www.blender.org
mtllib Motor.mtl
o Cube.004
v 0.025000 0.200000 -0.125000
v -0.025000 0.200000 -0.125000
v -0.025000 0.220000 -0.125000
v 0.025000 0.220000 -0.125000
v -0.025000 0.200000 -0.075000
v -0.025000 0.220000 -0.075000
v -0.050000 0.000000 -0.050000
v -0.050000 0.200000 -0.050000
v -0.050000 0.200000 -0.150000
v -0.050000 0.000000 -0.150000
v 0.050000 0.200000 -0.150000
v 0.050000 0.000000 -0.150000
v 0.025000 0.000000 -0.075000
v 0.025000 0.000000 -0.125000
v 0.050000 0.000000 -0.050000
v -0.025000 0.000000 -0.125000
v -0.025000 0.000000 -0.075000
v 0.025000 0.200000 -0.075000
v 0.050000 0.200000 -0.050000
v 0.025000 0.020000 -0.125000
v 0.025000 0.020000 -0.075000
v -0.025000 0.020000 -0.075000
v -0.025000 0.020000 -0.125000
v 0.025000 0.220000 -0.075000
v 0.025000 0.200000 -0.025000
v -0.025000 0.200000 -0.025000
v -0.025000 0.220000 -0.025000
v 0.025000 0.220000 -0.025000
v -0.025000 0.200000 0.025000
v -0.025000 0.220000 0.025000
v 0.050000 -0.000000 0.050000
v 0.050000 0.200000 0.050000
v -0.050000 0.200000 0.050000
v -0.050000 -0.000000 0.050000
v 0.025000 -0.000000 0.025000
v 0.025000 0.000000 -0.025000
v -0.025000 0.000000 -0.025000
v -0.025000 -0.000000 0.025000
v 0.025000 0.200000 0.025000
v 0.025000 0.020000 -0.025000
v 0.025000 0.020000 0.025000
v -0.025000 0.020000 0.025000
v -0.025000 0.020000 -0.025000
v 0.025000 0.220000 0.025000
v 0.125000 0.200000 -0.025000
v 0.075000 0.200000 -0.025000
v 0.075000 0.220000 -0.025000
v 0.125000 0.220000 -0.025000
v 0.075000 0.200000 0.025000
v 0.075000 0.220000 0.025000
v 0.150000 0.000000 -0.050000
v 0.150000 0.200000 -0.050000
v 0.150000 0.200000 0.050000
v 0.150000 -0.000000 0.050000
v 0.125000 -0.000000 0.025000
v 0.125000 0.000000 -0.025000
v 0.075000 0.000000 -0.025000
v 0.075000 -0.000000 0.025000
v 0.125000 0.200000 0.025000
v 0.125000 0.020000 -0.025000
v 0.125000 0.020000 0.025000
v 0.075000 0.020000 0.025000
v 0.075000 0.020000 -0.025000
v 0.125000 0.220000 0.025000
v 0.125000 0.200000 -0.125000
v 0.075000 0.200000 -0.125000
v 0.075000 0.220000 -0.125000
v 0.125000 0.220000 -0.125000
v 0.075000 0.200000 -0.075000
v 0.075000 0.220000 -0.075000
v 0.150000 0.000000 -0.150000
v 0.150000 0.200000 -0.150000
v 0.125000 0.000000 -0.075000
v 0.125000 0.000000 -0.125000
v 0.075000 0.000000 -0.125000
v 0.075000 0.000000 -0.075000
v 0.125000 0.200000 -0.075000
v 0.125000 0.020000 -0.125000
v 0.125000 0.020000 -0.075000
v 0.075000 0.020000 -0.075000
v 0.075000 0.020000 -0.125000
v 0.125000 0.220000 -0.075000
vn 0.0000 0.0000 -1.0000
vn -1.0000 0.0000 0.0000
vn -0.0000 -1.0000 -0.0000
vn -0.0000 1.0000 0.0000
vn 1.0000 0.0000 0.0000
vn 0.0000 0.0000 1.0000
usemtl Material.003
s 1
f 1//1 2//1 3//1 4//1
f 2//2 5//2 6//2 3//2
f 7//2 8//2 9//2 10//2
f 11//1 12//1 10//1 9//1
f 13//3 14//3 12//3 15//3
f 14//3 16//3 10//3 12//3
f 17//3 13//3 15//3 7//3
f 16//3 17//3 7//3 10//3
f 1//4 18//4 19//4 11//4
f 2//4 1//4 11//4 9//4
f 18//4 5//4 8//4 19//4
f 5//4 2//4 9//4 8//4
f 20//3 21//3 22//3 23//3
f 4//4 3//4 6//4 24//4
f 17//5 16//5 23//5 22//5
f 16//6 14//6 20//6 23//6
f 5//6 18//6 24//6 6//6
f 18//5 1//5 4//5 24//5
f 13//1 17//1 22//1 21//1
f 14//2 13//2 21//2 20//2
f 25//1 26//1 27//1 28//1
f 26//2 29//2 30//2 27//2
f 31//6 32//6 33//6 34//6
f 34//2 33//2 8//2 7//2
f 35//3 36//3 15//3 31//3
f 36//3 37//3 7//3 15//3
f 38//3 35//3 31//3 34//3
f 37//3 38//3 34//3 7//3
f 25//4 39//4 32//4 19//4
f 26//4 25//4 19//4 8//4
f 39//4 29//4 33//4 32//4
f 29//4 26//4 8//4 33//4
f 40//3 41//3 42//3 43//3
f 28//4 27//4 30//4 44//4
f 38//5 37//5 43//5 42//5
f 37//6 36//6 40//6 43//6
f 29//6 39//6 44//6 30//6
f 39//5 25//5 28//5 44//5
f 35//1 38//1 42//1 41//1
f 36//2 35//2 41//2 40//2
f 45//1 46//1 47//1 48//1
f 46//2 49//2 50//2 47//2
f 51//5 52//5 53//5 54//5
f 54//6 53//6 32//6 31//6
f 55//3 56//3 51//3 54//3
f 56//3 57//3 15//3 51//3
f 58//3 55//3 54//3 31//3
f 57//3 58//3 31//3 15//3
f 45//4 59//4 53//4 52//4
f 46//4 45//4 52//4 19//4
f 59//4 49//4 32//4 53//4
f 49//4 46//4 19//4 32//4
f 60//3 61//3 62//3 63//3
f 48//4 47//4 50//4 64//4
f 58//5 57//5 63//5 62//5
f 57//6 56//6 60//6 63//6
f 49//6 59//6 64//6 50//6
f 59//5 45//5 48//5 64//5
f 55//1 58//1 62//1 61//1
f 56//2 55//2 61//2 60//2
f 65//1 66//1 67//1 68//1
f 66//2 69//2 70//2 67//2
f 71//5 72//5 52//5 51//5
f 72//1 71//1 12//1 11//1
f 73//3 74//3 71//3 51//3
f 74//3 75//3 12//3 71//3
f 76//3 73//3 51//3 15//3
f 75//3 76//3 15//3 12//3
f 65//4 77//4 52//4 72//4
f 66//4 65//4 72//4 11//4
f 77//4 69//4 19//4 52//4
f 69//4 66//4 11//4 19//4
f 78//3 79//3 80//3 81//3
f 68//4 67//4 70//4 82//4
f 76//5 75//5 81//5 80//5
f 75//6 74//6 78//6 81//6
f 69//6 77//6 82//6 70//6
f 77//5 65//5 68//5 82//5
f 73//1 76//1 80//1 79//1
f 74//2 73//2 79//2 78//2
