# Blender v2.77 (sub 0) OBJ File: ''
# www.blender.org
mtllib Box.mtl
o Cube_Cube.001
v 0.121437 0.089729 0.121398
v 0.121437 0.121398 0.089729
v 0.113961 0.089729 0.121398
v 0.113961 0.121398 0.089729
v 0.121437 -0.121398 -0.089729
v 0.121437 -0.089729 -0.121398
v 0.113961 -0.121398 -0.089729
v 0.113961 -0.089729 -0.121398
v 0.121398 0.089729 -0.121437
v 0.089729 0.121398 -0.121437
v 0.121398 0.089729 -0.110152
v 0.089729 0.121398 -0.110152
v -0.089729 -0.121398 -0.121437
v -0.121398 -0.089729 -0.121437
v -0.089729 -0.121398 -0.110152
v -0.121398 -0.089729 -0.110152
v -0.121437 0.089729 -0.121398
v -0.121437 0.121398 -0.089729
v -0.113961 0.089729 -0.121398
v -0.113961 0.121398 -0.089729
v -0.121437 -0.121398 0.089729
v -0.121437 -0.089729 0.121398
v -0.113961 -0.121398 0.089729
v -0.113961 -0.089729 0.121398
v -0.121398 0.089729 0.121437
v -0.089729 0.121398 0.121437
v -0.121398 0.089729 0.110152
v -0.089729 0.121398 0.110152
v 0.089729 -0.121398 0.121437
v 0.121398 -0.089729 0.121437
v 0.089729 -0.121398 0.110152
v 0.121398 -0.089729 0.110152
v 0.089729 -0.121437 0.121398
v 0.121398 -0.121437 0.089729
v 0.089729 -0.113961 0.121398
v 0.121398 -0.113961 0.089729
v -0.121398 -0.121437 -0.089729
v -0.089729 -0.121437 -0.121398
v -0.121398 -0.113961 -0.089729
v -0.089729 -0.113961 -0.121398
v 0.089729 0.121437 -0.121398
v 0.121398 0.121437 -0.089729
v 0.089729 0.113961 -0.121398
v 0.121398 0.113961 -0.089729
v -0.121398 0.121437 0.089729
v -0.089729 0.121437 0.121398
v -0.121398 0.113961 0.089729
v -0.089729 0.113961 0.121398
v -0.100800 -0.126000 0.100800
v -0.100800 0.126000 0.100800
v -0.100800 -0.126000 -0.100800
v -0.100800 0.126000 -0.100800
v 0.100800 -0.126000 0.100800
v 0.100800 0.126000 0.100800
v 0.100800 -0.126000 -0.100800
v 0.100800 0.126000 -0.100800
v -0.100800 0.100800 0.126000
v -0.100800 0.100800 -0.126000
v -0.100800 -0.100800 -0.126000
v -0.100800 -0.100800 0.126000
v 0.100800 0.100800 -0.126000
v 0.100800 -0.100800 -0.126000
v 0.100800 0.100800 0.126000
v 0.100800 -0.100800 0.126000
v -0.126000 -0.100800 0.100800
v -0.126000 0.100800 0.100800
v -0.126000 0.100800 -0.100800
v -0.126000 -0.100800 -0.100800
v 0.126000 0.100800 -0.100800
v 0.126000 -0.100800 -0.100800
v 0.126000 0.100800 0.100800
v 0.126000 -0.100800 0.100800
v -0.126000 -0.126000 0.126000
v -0.126000 0.126000 0.126000
v -0.126000 0.126000 -0.126000
v -0.126000 -0.126000 -0.126000
v 0.126000 0.126000 -0.126000
v 0.126000 -0.126000 -0.126000
v 0.126000 0.126000 0.126000
v 0.126000 -0.126000 0.126000
v -0.100800 0.113400 0.100800
v -0.100800 0.113400 -0.100800
v -0.100800 -0.113400 -0.100800
v -0.100800 -0.113400 0.100800
v 0.100800 0.113400 -0.100800
v 0.100800 -0.113400 -0.100800
v 0.100800 0.113400 0.100800
v 0.100800 -0.113400 0.100800
v -0.113400 -0.100800 0.100800
v -0.113400 0.100800 0.100800
v -0.113400 0.100800 -0.100800
v -0.113400 -0.100800 -0.100800
v 0.113400 0.100800 -0.100800
v 0.113400 -0.100800 -0.100800
v 0.113400 0.100800 0.100800
v 0.113400 -0.100800 0.100800
v -0.100800 -0.100800 0.113400
v -0.100800 0.100800 0.113400
v -0.100800 0.100800 -0.113400
v -0.100800 -0.100800 -0.113400
v 0.100800 0.100800 -0.113400
v 0.100800 -0.100800 -0.113400
v 0.100800 0.100800 0.113400
v 0.100800 -0.100800 0.113400
vn -0.0000 0.7071 0.7071
vn -1.0000 0.0000 -0.0000
vn 0.0000 -0.7071 -0.7071
vn 1.0000 0.0000 -0.0000
vn 0.0000 -0.7071 0.7071
vn -0.0000 0.7071 -0.7071
vn 0.7071 0.7071 0.0000
vn 0.0000 0.0000 1.0000
vn -0.7071 -0.7071 0.0000
vn 0.0000 -0.0000 -1.0000
vn 0.7071 -0.7071 -0.0000
vn -0.7071 0.7071 0.0000
vn 0.7071 0.0000 0.7071
vn 0.0000 1.0000 -0.0000
vn -0.7071 0.0000 -0.7071
vn 0.0000 -1.0000 0.0000
vn -0.7071 0.0000 0.7071
vn 0.7071 0.0000 -0.7071
usemtl Material.008
s off
f 2//1 4//1 3//1 1//1
f 4//2 8//2 7//2 3//2
f 8//3 6//3 5//3 7//3
f 6//4 2//4 1//4 5//4
f 1//5 3//5 7//5 5//5
f 6//6 8//6 4//6 2//6
f 10//7 12//7 11//7 9//7
f 12//8 16//8 15//8 11//8
f 16//9 14//9 13//9 15//9
f 14//10 10//10 9//10 13//10
f 9//11 11//11 15//11 13//11
f 14//12 16//12 12//12 10//12
f 18//6 20//6 19//6 17//6
f 20//4 24//4 23//4 19//4
f 24//5 22//5 21//5 23//5
f 22//2 18//2 17//2 21//2
f 17//3 19//3 23//3 21//3
f 22//1 24//1 20//1 18//1
f 26//12 28//12 27//12 25//12
f 28//10 32//10 31//10 27//10
f 32//11 30//11 29//11 31//11
f 30//8 26//8 25//8 29//8
f 25//9 27//9 31//9 29//9
f 30//7 32//7 28//7 26//7
f 34//13 36//13 35//13 33//13
f 36//14 40//14 39//14 35//14
f 40//15 38//15 37//15 39//15
f 38//16 34//16 33//16 37//16
f 33//17 35//17 39//17 37//17
f 38//18 40//18 36//18 34//18
f 42//18 44//18 43//18 41//18
f 44//16 48//16 47//16 43//16
f 48//17 46//17 45//17 47//17
f 46//14 42//14 41//14 45//14
f 41//15 43//15 47//15 45//15
f 46//13 48//13 44//13 42//13
f 65//10 66//10 90//10 89//10
f 64//2 63//2 103//2 104//2
f 67//8 68//8 92//8 91//8
f 60//14 64//14 104//14 97//14
f 50//10 54//10 87//10 81//10
f 49//4 51//4 83//4 84//4
f 50//14 52//14 75//14 74//14
f 51//16 49//16 73//16 76//16
f 52//14 56//14 77//14 75//14
f 55//16 51//16 76//16 78//16
f 56//14 54//14 79//14 77//14
f 53//16 55//16 78//16 80//16
f 54//14 50//14 74//14 79//14
f 49//16 53//16 80//16 73//16
f 60//8 57//8 74//8 73//8
f 58//10 59//10 76//10 75//10
f 61//10 58//10 75//10 77//10
f 62//10 61//10 77//10 78//10
f 59//10 62//10 78//10 76//10
f 63//8 64//8 80//8 79//8
f 57//8 63//8 79//8 74//8
f 64//8 60//8 73//8 80//8
f 66//2 65//2 73//2 74//2
f 67//2 66//2 74//2 75//2
f 68//2 67//2 75//2 76//2
f 65//2 68//2 76//2 73//2
f 69//4 70//4 78//4 77//4
f 71//4 69//4 77//4 79//4
f 72//4 71//4 79//4 80//4
f 70//4 72//4 80//4 78//4
f 54//2 56//2 85//2 87//2
f 56//8 52//8 82//8 85//8
f 52//4 50//4 81//4 82//4
f 53//10 49//10 84//10 88//10
f 55//2 53//2 88//2 86//2
f 51//8 55//8 86//8 83//8
f 72//14 70//14 94//14 96//14
f 69//16 71//16 95//16 93//16
f 68//14 65//14 89//14 92//14
f 66//16 67//16 91//16 90//16
f 71//10 72//10 96//10 95//10
f 70//8 69//8 93//8 94//8
f 61//2 62//2 102//2 101//2
f 59//4 58//4 99//4 100//4
f 63//16 57//16 98//16 103//16
f 62//14 59//14 100//14 102//14
f 58//16 61//16 101//16 99//16
f 57//4 60//4 97//4 98//4
usemtl Material.009
f 84//16 83//16 86//16 88//16
f 87//14 85//14 82//14 81//14
f 90//2 91//2 92//2 89//2
f 93//4 95//4 96//4 94//4
f 99//10 101//10 102//10 100//10
f 103//8 98//8 97//8 104//8
