# Blender v2.78 (sub 0) OBJ File: ''
# www.blender.org
mtllib GlueBall.mtl
o Sphere
v 0.004023 0.089167 -0.044333
v 0.004023 0.061474 -0.071107
v 0.004023 0.033377 -0.096208
v 0.004023 -0.004150 -0.111962
v 0.004023 -0.043278 -0.100176
v 0.004023 -0.073984 -0.075462
v 0.019299 0.091984 -0.042536
v 0.028798 0.060786 -0.065468
v 0.038735 0.033440 -0.089457
v 0.045530 -0.004150 -0.105863
v 0.038904 -0.041917 -0.089866
v 0.028992 -0.069577 -0.065937
v 0.019013 -0.098587 -0.041846
v 0.004023 0.097958 -0.005656
v 0.033626 0.096403 -0.035259
v 0.050348 0.061535 -0.051981
v 0.061383 0.029569 -0.063016
v 0.067199 -0.004150 -0.068832
v 0.061546 -0.037961 -0.063178
v 0.051737 -0.071733 -0.053370
v 0.031611 -0.098234 -0.033245
v 0.044897 0.101800 -0.022587
v 0.067724 0.064857 -0.032042
v 0.071160 0.026158 -0.033466
v 0.076232 -0.004150 -0.035566
v 0.084174 -0.040144 -0.038856
v 0.073235 -0.078925 -0.034325
v 0.040028 -0.098133 -0.020570
v 0.049536 0.104685 -0.005656
v 0.078463 0.070167 -0.005656
v 0.085184 0.029586 -0.005656
v 0.101448 -0.004150 -0.005656
v 0.110434 -0.048079 -0.005656
v 0.084065 -0.083884 -0.005656
v 0.042252 -0.096448 -0.005656
v 0.044160 0.099989 0.010969
v 0.071564 0.068877 0.022320
v 0.081326 0.030600 0.026364
v 0.095985 -0.004150 0.032435
v 0.100779 -0.047399 0.034421
v 0.076131 -0.081956 0.024212
v 0.038169 -0.093565 0.008487
v 0.031446 0.089404 0.021767
v 0.049501 0.060376 0.039821
v 0.060386 0.029000 0.050706
v 0.070865 -0.004150 0.061186
v 0.071725 -0.043773 0.062046
v 0.056319 -0.077999 0.046639
v 0.029162 -0.090370 0.019483
v 0.017093 0.078895 0.025897
v 0.025957 0.053608 0.047297
v 0.034541 0.029016 0.068020
v 0.043397 -0.004150 0.089401
v 0.041316 -0.044461 0.084376
v 0.030557 -0.073530 0.058401
v 0.016944 -0.086311 0.025537
v 0.004023 0.072571 0.025711
v 0.004023 0.053589 0.051640
v 0.004023 0.029714 0.075821
v 0.004023 -0.004150 0.095130
v 0.004023 -0.041890 0.085424
v 0.004023 -0.065466 0.055340
v 0.004023 -0.082796 0.026559
v -0.007818 0.071603 0.022930
v -0.018507 0.055114 0.048737
v -0.027857 0.030453 0.071309
v -0.033108 -0.004150 0.083985
v -0.028370 -0.039293 0.072548
v -0.017390 -0.060593 0.046041
v -0.008343 -0.083022 0.024199
v -0.018489 0.073637 0.016856
v -0.039838 0.058166 0.038206
v -0.063572 0.035413 0.061939
v -0.076462 -0.004150 0.074830
v -0.063140 -0.043466 0.061507
v -0.038020 -0.063979 0.036387
v -0.019911 -0.086502 0.018278
v 0.004023 -0.105207 -0.005656
v -0.026971 0.077520 0.007182
v -0.054134 0.059055 0.018433
v -0.086117 0.036210 0.031681
v -0.105321 -0.004150 0.039635
v -0.085562 -0.044266 0.031451
v -0.055413 -0.068693 0.018963
v -0.029227 -0.091364 0.008116
v -0.031766 0.082611 -0.005656
v -0.061339 0.061389 -0.005656
v -0.084968 0.032747 -0.005656
v -0.094799 -0.004150 -0.005656
v -0.076613 -0.037674 -0.005656
v -0.056869 -0.065366 -0.005656
v -0.033012 -0.093737 -0.005656
v -0.030535 0.086280 -0.019971
v -0.060127 0.065329 -0.032229
v -0.078025 0.032674 -0.039642
v -0.083396 -0.004150 -0.041866
v -0.068185 -0.036673 -0.035567
v -0.052632 -0.065782 -0.029124
v -0.031560 -0.097097 -0.020395
v -0.022818 0.087537 -0.032498
v -0.044069 0.063952 -0.053749
v -0.058118 0.032300 -0.067798
v -0.068249 -0.004150 -0.077929
v -0.057352 -0.040161 -0.067032
v -0.043975 -0.072122 -0.053654
v -0.024561 -0.101432 -0.034240
v -0.010536 0.087732 -0.040806
v -0.020881 0.061115 -0.065781
v -0.028834 0.031484 -0.084982
v -0.034212 -0.004150 -0.097966
v -0.031081 -0.042154 -0.090407
v -0.023759 -0.076686 -0.072729
v -0.011783 -0.103430 -0.043817
v 0.004023 -0.101021 -0.045900
vt 0.9819 0.1131
vt 0.8306 0.1443
vt 0.7981 0.1065
vt 0.7605 0.2337
vt 0.7260 0.3378
vt 0.6668 0.2952
vt 0.7035 0.1906
vt 0.7016 0.4466
vt 0.6787 0.5553
vt 0.6266 0.5168
vt 0.6448 0.4058
vt 0.6512 0.6644
vt 0.6077 0.7716
vt 0.5779 0.7465
vt 0.6069 0.6296
vt 0.5151 0.8522
vt 0.6329 0.1519
vt 0.7634 0.0656
vt 0.5851 0.3732
vt 0.6009 0.2606
vt 0.5624 0.6071
vt 0.5737 0.4881
vt 0.5468 0.7310
vt 0.5227 0.3562
vt 0.5264 0.2420
vt 0.5169 0.5988
vt 0.5199 0.4740
vt 0.5146 0.7257
vt 0.7080 0.0228
vt 0.5386 0.1266
vt 1.2602 0.0225
vt 0.4458 0.2457
vt 0.4290 0.1282
vt 0.4636 0.4804
vt 0.4557 0.3622
vt 0.4823 0.7306
vt 0.4705 0.6054
vt 0.2602 0.0225
vt 0.4077 0.5023
vt 0.3909 0.3843
vt 0.4511 0.7454
vt 0.4245 0.6252
vt 0.3356 0.1556
vt 0.2036 0.0649
vt 0.3706 0.2690
vt 1.2036 0.0649
vt 0.2642 0.1960
vt 0.1677 0.1054
vt 0.3292 0.4205
vt 0.3034 0.3060
vt 0.3796 0.6575
vt 0.3528 0.5379
vt 0.4220 0.7698
vt 1.1677 0.1054
vt 0.3337 0.7023
vt 0.2967 0.5861
vt 0.3958 0.8036
vt 1.1338 0.1421
vt 0.2416 0.3531
vt 0.2057 0.2396
vt 0.2685 0.4697
vt 0.1338 0.1421
vt 1.0999 0.1737
vt 0.1833 0.3988
vt 0.1528 0.2784
vt 0.2373 0.6406
vt 0.2083 0.5203
vt 0.3728 0.8459
vt 0.2821 0.7573
vt 0.0999 0.1737
vt 0.3547 0.8944
vt 0.2192 0.8152
vt 0.1017 0.3113
vt 0.0658 0.2003
vt 0.1454 0.5664
vt 0.1250 0.4386
vt 0.1710 0.6932
vt 1.0658 0.2003
vt 0.0517 0.3391
vt 0.0315 0.2202
vt 0.0786 0.6026
vt 0.0661 0.4714
vt 0.1311 0.8642
vt 0.0945 0.7330
vt 0.3558 0.9453
vt 1.0315 0.2202
vt 0.5414 0.9800
vt 0.9972 0.2312
vt 0.0063 0.4852
vt 0.0025 0.3539
vt 0.0093 0.7487
vt 0.0089 0.6173
vt 1.0063 0.8843
vt 1.0517 0.3391
vt 1.0025 0.3539
vt 0.0063 0.8843
vt 1.0063 0.4852
vt 0.9456 0.4760
vt 0.9528 0.3504
vt 1.0089 0.6173
vt 1.0093 0.7487
vt 0.9237 0.7349
vt 0.9380 0.6064
vt 0.6860 0.9411
vt 0.8869 0.8610
vt 0.9626 0.2314
vt 0.9046 0.3352
vt 0.9286 0.2222
vt 0.8723 0.5777
vt 0.8880 0.4539
vt 0.8057 0.8140
vt 0.8495 0.6988
vt 0.6819 0.8923
vt 0.8130 0.5386
vt 0.8340 0.4226
vt 0.7459 0.7603
vt 0.7866 0.6512
vt 0.6612 0.8462
vt 0.8955 0.2040
vt 0.8581 0.3104
vt 0.8630 0.1775
vt 0.7807 0.3820
vt 0.8110 0.2755
vt 0.7308 0.6008
vt 0.7566 0.4918
vt 0.6357 0.8053
vt 0.6964 0.7084
vn -0.0177 -0.9733 0.2289
vn 0.1753 -0.8813 -0.4389
vn 0.2705 -0.8618 -0.4292
vn 0.1209 -0.6640 -0.7378
vn 0.0081 -0.4579 -0.8889
vn 0.4893 -0.4675 -0.7362
vn 0.3937 -0.6369 -0.6628
vn -0.0675 0.0450 -0.9967
vn -0.0648 0.5220 -0.8505
vn 0.4488 0.5035 -0.7382
vn 0.5381 0.0176 -0.8426
vn -0.0417 0.6670 -0.7439
vn -0.0917 0.8461 -0.5250
vn 0.0580 0.8314 -0.5526
vn 0.3088 0.6277 -0.7145
vn -0.2577 0.9464 0.1945
vn 0.4975 -0.5823 -0.6429
vn 0.2645 -0.8851 -0.3829
vn 0.8779 0.0528 -0.4759
vn 0.7447 -0.2856 -0.6031
vn 0.6111 0.4904 -0.6213
vn 0.8118 0.3349 -0.4783
vn 0.1897 0.8231 -0.5352
vn 0.8581 0.1729 -0.4835
vn 0.7844 -0.1209 -0.6084
vn 0.7887 0.3724 -0.4891
vn 0.8756 0.2164 -0.4318
vn 0.3254 0.8561 -0.4014
vn 0.2897 -0.9355 -0.2020
vn 0.5731 -0.6362 -0.5165
vn 0.2716 -0.9596 0.0732
vn 0.9624 -0.1961 -0.1878
vn 0.6257 -0.7743 -0.0950
vn 0.9419 0.2762 -0.1909
vn 0.9333 0.2785 -0.2265
vn 0.3990 0.9169 -0.0082
vn 0.9014 0.4237 -0.0891
vn 0.8318 0.3614 0.4212
vn 0.8659 0.2689 0.4217
vn 0.2277 0.8458 0.4824
vn 0.7129 0.4788 0.5124
vn 0.4890 -0.7928 0.3637
vn 0.1903 -0.9409 0.2803
vn 0.8484 -0.2452 0.4690
vn 0.3011 -0.7793 0.5496
vn 0.0605 -0.9126 0.4043
vn 0.6769 0.2336 0.6980
vn 0.6182 -0.2880 0.7313
vn 0.3276 0.5215 0.7878
vn 0.5583 0.4489 0.6976
vn -0.0538 0.7072 0.7050
vn 0.1190 0.6430 0.7565
vn 0.3161 0.5684 0.7596
vn -0.1839 0.6950 0.6951
vn -0.1271 -0.8639 0.4874
vn 0.2824 -0.4116 0.8665
vn 0.0091 -0.7960 0.6052
vn 0.4012 0.1973 0.8945
vn -0.2192 -0.8138 0.5382
vn -0.1814 -0.5003 0.8466
vn -0.2609 -0.7772 0.5725
vn 0.0162 0.5900 0.8072
vn -0.0719 0.1272 0.9893
vn -0.1593 0.7689 0.6191
vn -0.0004 0.7378 0.6750
vn -0.1474 0.8101 0.5673
vn -0.0998 0.7800 0.6177
vn -0.2289 -0.7728 0.5919
vn -0.1657 -0.7796 0.6039
vn -0.2474 0.0395 0.9681
vn -0.2564 -0.5738 0.7778
vn -0.1519 0.5605 0.8141
vn -0.2551 -0.7812 0.5698
vn -0.1918 -0.7741 0.6033
vn -0.5457 -0.0016 0.8379
vn -0.3950 -0.6266 0.6718
vn -0.2645 0.8300 0.4910
vn -0.4096 0.6119 0.6766
vn -0.2363 0.8244 0.5142
vn -0.3748 0.8215 0.4296
vn -0.4100 -0.8343 0.3685
vn -0.7583 -0.6314 0.1623
vn -0.5833 -0.7801 0.2263
vn -0.7613 0.6081 0.2250
vn -0.9690 -0.0286 0.2453
vn -0.5019 0.8186 0.2792
vn -0.8251 -0.5174 -0.2268
vn -0.7710 -0.6283 -0.1035
vn -0.8765 0.4684 -0.1111
vn -0.9671 -0.0882 -0.2386
vn -0.4734 0.8389 0.2685
vn -0.6705 0.7359 0.0943
vn -0.5693 -0.8156 0.1031
vn -0.8193 -0.5500 -0.1617
vn -0.5972 -0.8019 0.0166
vn -0.9337 -0.1048 -0.3425
vn -0.8489 -0.4662 -0.2490
vn -0.6862 0.6919 -0.2245
vn -0.8564 0.3908 -0.3372
vn -0.4619 0.8860 -0.0417
vn -0.7556 -0.0220 -0.6546
vn -0.7527 -0.4273 -0.5007
vn -0.4824 0.6609 -0.5748
vn -0.6217 0.4270 -0.6567
vn -0.3240 0.8831 -0.3391
vn -0.4926 -0.8573 -0.1495
vn -0.7245 -0.5750 -0.3800
vn -0.1642 -0.9148 -0.3691
vn -0.4239 -0.4015 -0.8119
vn -0.3468 -0.6426 -0.6832
vn -0.3580 0.4698 -0.8069
vn -0.4394 0.0475 -0.8970
vn -0.2080 0.8564 -0.4725
vn -0.2798 0.6464 -0.7098
usemtl None
s 1
f 78/1/1 114/2/2 13/3/3
f 6/4/4 5/5/5 11/6/6 12/7/7
f 4/8/8 3/9/9 9/10/10 10/11/11
f 2/12/12 1/13/13 7/14/14 8/15/15
f 114/2/2 6/4/4 12/7/7 13/3/3
f 5/5/5 4/8/8 10/11/11 11/6/6
f 3/9/9 2/12/12 8/15/15 9/10/10
f 1/13/13 14/16/16 7/14/14
f 13/3/3 12/7/7 20/17/17 21/18/18
f 11/6/6 10/11/11 18/19/19 19/20/20
f 9/10/10 8/15/15 16/21/21 17/22/22
f 7/14/14 14/16/16 15/23/23
f 78/1/1 13/3/3 21/18/18
f 12/7/7 11/6/6 19/20/20 20/17/17
f 10/11/11 9/10/10 17/22/22 18/19/19
f 8/15/15 7/14/14 15/23/23 16/21/21
f 19/20/20 18/19/19 25/24/24 26/25/25
f 17/22/22 16/21/21 23/26/26 24/27/27
f 15/23/23 14/16/16 22/28/28
f 78/1/1 21/18/18 28/29/29
f 20/17/17 19/20/20 26/25/25 27/30/30
f 18/19/19 17/22/22 24/27/27 25/24/24
f 16/21/21 15/23/23 22/28/28 23/26/26
f 21/18/18 20/17/17 27/30/30 28/29/29
f 78/1/1 28/29/29 35/31/31
f 27/30/30 26/25/25 33/32/32 34/33/33
f 25/24/24 24/27/27 31/34/34 32/35/35
f 23/26/26 22/28/28 29/36/36 30/37/37
f 28/29/29 27/30/30 34/33/33 35/38/31
f 26/25/25 25/24/24 32/35/35 33/32/32
f 24/27/27 23/26/26 30/37/37 31/34/34
f 22/28/28 14/16/16 29/36/36
f 32/35/35 31/34/34 38/39/38 39/40/39
f 30/37/37 29/36/36 36/41/40 37/42/41
f 35/38/31 34/33/33 41/43/42 42/44/43
f 33/32/32 32/35/35 39/40/39 40/45/44
f 31/34/34 30/37/37 37/42/41 38/39/38
f 29/36/36 14/16/16 36/41/40
f 78/1/1 35/31/31 42/46/43
f 34/33/33 33/32/32 40/45/44 41/43/42
f 42/44/43 41/43/42 48/47/45 49/48/46
f 40/45/44 39/40/39 46/49/47 47/50/48
f 38/39/38 37/42/41 44/51/49 45/52/50
f 36/41/40 14/16/16 43/53/51
f 78/1/1 42/46/43 49/54/46
f 41/43/42 40/45/44 47/50/48 48/47/45
f 39/40/39 38/39/38 45/52/50 46/49/47
f 37/42/41 36/41/40 43/53/51 44/51/49
f 45/52/50 44/51/49 51/55/52 52/56/53
f 43/53/51 14/16/16 50/57/54
f 78/1/1 49/54/46 56/58/55
f 48/47/45 47/50/48 54/59/56 55/60/57
f 46/49/47 45/52/50 52/56/53 53/61/58
f 44/51/49 43/53/51 50/57/54 51/55/52
f 49/48/46 48/47/45 55/60/57 56/62/55
f 47/50/48 46/49/47 53/61/58 54/59/56
f 78/1/1 56/58/55 63/63/59
f 55/60/57 54/59/56 61/64/60 62/65/61
f 53/61/58 52/56/53 59/66/62 60/67/63
f 51/55/52 50/57/54 57/68/64 58/69/65
f 56/62/55 55/60/57 62/65/61 63/70/59
f 54/59/56 53/61/58 60/67/63 61/64/60
f 52/56/53 51/55/52 58/69/65 59/66/62
f 50/57/54 14/16/16 57/68/64
f 58/69/65 57/68/64 64/71/66 65/72/67
f 63/70/59 62/65/61 69/73/68 70/74/69
f 61/64/60 60/67/63 67/75/70 68/76/71
f 59/66/62 58/69/65 65/72/67 66/77/72
f 57/68/64 14/16/16 64/71/66
f 78/1/1 63/63/59 70/78/69
f 62/65/61 61/64/60 68/76/71 69/73/68
f 60/67/63 59/66/62 66/77/72 67/75/70
f 70/74/69 69/73/68 76/79/73 77/80/74
f 68/76/71 67/75/70 74/81/75 75/82/76
f 66/77/72 65/72/67 72/83/77 73/84/78
f 64/71/66 14/16/16 71/85/79
f 78/1/1 70/78/69 77/86/74
f 69/73/68 68/76/71 75/82/76 76/79/73
f 67/75/70 66/77/72 73/84/78 74/81/75
f 65/72/67 64/71/66 71/85/79 72/83/77
f 71/85/79 14/16/16 79/87/80
f 78/1/1 77/86/74 85/88/81
f 76/79/73 75/82/76 83/89/82 84/90/83
f 74/81/75 73/84/78 81/91/84 82/92/85
f 72/83/77 71/85/79 79/87/80 80/93/86
f 77/86/74 76/94/73 84/95/83 85/88/81
f 75/82/76 74/81/75 82/92/85 83/89/82
f 73/84/78 72/83/77 80/96/86 81/91/84
f 84/95/83 83/97/82 90/98/87 91/99/88
f 82/100/85 81/101/84 88/102/89 89/103/90
f 80/93/86 79/87/80 86/104/91 87/105/92
f 85/88/81 84/95/83 91/99/88 92/106/93
f 83/97/82 82/100/85 89/103/90 90/98/87
f 81/101/84 80/93/86 87/105/92 88/102/89
f 79/87/80 14/16/16 86/104/91
f 78/1/1 85/88/81 92/106/93
f 92/106/93 91/99/88 98/107/94 99/108/95
f 90/98/87 89/103/90 96/109/96 97/110/97
f 88/102/89 87/105/92 94/111/98 95/112/99
f 86/104/91 14/16/16 93/113/100
f 78/1/1 92/106/93 99/108/95
f 91/99/88 90/98/87 97/110/97 98/107/94
f 89/103/90 88/102/89 95/112/99 96/109/96
f 87/105/92 86/104/91 93/113/100 94/111/98
f 97/110/97 96/109/96 103/114/101 104/115/102
f 95/112/99 94/111/98 101/116/103 102/117/104
f 93/113/100 14/16/16 100/118/105
f 78/1/1 99/108/95 106/119/106
f 98/107/94 97/110/97 104/115/102 105/120/107
f 96/109/96 95/112/99 102/117/104 103/114/101
f 94/111/98 93/113/100 100/118/105 101/116/103
f 99/108/95 98/107/94 105/120/107 106/119/106
f 78/1/1 106/119/106 113/121/108
f 105/120/107 104/115/102 111/122/109 112/123/110
f 103/114/101 102/117/104 109/124/111 110/125/112
f 101/116/103 100/118/105 107/126/113 108/127/114
f 106/119/106 105/120/107 112/123/110 113/121/108
f 104/115/102 103/114/101 110/125/112 111/122/109
f 102/117/104 101/116/103 108/127/114 109/124/111
f 100/118/105 14/16/16 107/126/113
f 110/125/112 109/124/111 3/9/9 4/8/8
f 108/127/114 107/126/113 1/13/13 2/12/12
f 113/121/108 112/123/110 6/4/4 114/2/2
f 111/122/109 110/125/112 4/8/8 5/5/5
f 109/124/111 108/127/114 2/12/12 3/9/9
f 107/126/113 14/16/16 1/13/13
f 78/1/1 113/121/108 114/2/2
f 112/123/110 111/122/109 5/5/5 6/4/4
