# Blender v2.77 (sub 0) OBJ File: ''
# www.blender.org
mtllib Propeller.mtl
o Cylinder_Cylinder.006
v 0.000000 0.038505 -0.013671
v 0.000000 0.087142 -0.013671
v 0.009667 0.038505 -0.009667
v 0.009667 0.087142 -0.009667
v 0.013671 0.038505 0.000000
v 0.013671 0.087142 0.000000
v 0.009667 0.038505 0.009667
v 0.009667 0.087142 0.009667
v -0.000000 0.038505 0.013671
v -0.000000 0.087142 0.013671
v -0.009667 0.038505 0.009667
v -0.009667 0.087142 0.009667
v -0.013671 0.038505 -0.000000
v -0.013671 0.087142 -0.000000
v -0.009667 0.038505 -0.009667
v -0.009667 0.087142 -0.009667
vn 0.0000 -0.6302 -0.7764
vn 0.0000 0.6302 -0.7764
vn 0.5490 0.6302 -0.5490
vn 0.5490 -0.6302 -0.5490
vn 0.7764 0.6302 0.0000
vn 0.7764 -0.6302 0.0000
vn 0.5490 0.6302 0.5490
vn 0.5490 -0.6302 0.5490
vn 0.0000 0.6302 0.7764
vn 0.0000 -0.6302 0.7764
vn -0.5490 0.6302 0.5490
vn -0.5490 -0.6302 0.5490
vn -0.7764 0.6302 0.0000
vn -0.7764 -0.6302 0.0000
vn -0.5490 0.6302 -0.5490
vn -0.5490 -0.6302 -0.5490
usemtl None
s 1
f 1//1 2//2 4//3 3//4
f 3//4 4//3 6//5 5//6
f 5//6 6//5 8//7 7//8
f 7//8 8//7 10//9 9//10
f 9//10 10//9 12//11 11//12
f 11//12 12//11 14//13 13//14
f 4//3 2//2 16//15 14//13 12//11 10//9 8//7 6//5
f 13//14 14//13 16//15 15//16
f 15//16 16//15 2//2 1//1
f 1//1 3//4 5//6 7//8 9//10 11//12 13//14 15//16
o Icosphere
v 0.000000 0.086402 -0.018396
v 0.000000 0.100071 -0.018396
v 0.014276 0.087536 -0.010560
v 0.014276 0.098936 -0.010560
v 0.018650 0.087536 0.000000
v 0.018650 0.098936 0.000000
v 0.014276 0.087536 0.010560
v 0.014276 0.098936 0.010560
v -0.000000 0.086402 0.018396
v -0.000000 0.100071 0.018396
v -0.014686 0.087594 0.010567
v -0.014686 0.098879 0.010567
v -0.019063 0.087594 -0.000000
v -0.019063 0.098879 -0.000000
v -0.014686 0.087594 -0.010567
v -0.014686 0.098879 -0.010567
v -0.013008 0.100071 0.013008
v -0.013008 0.086402 0.013008
v -0.018396 0.086402 -0.000000
v -0.018396 0.100071 -0.000000
v -0.013008 0.086402 -0.013008
v -0.013008 0.100071 -0.013008
v -0.024018 0.098523 -0.001970
v -0.024018 0.087949 0.001970
v -0.019641 0.102214 0.007932
v -0.019641 0.091639 0.011873
v -0.019641 0.084259 -0.007932
v -0.019641 0.094833 -0.011873
v -0.147597 0.098523 -0.001970
v -0.147597 0.087949 0.001970
v -0.143220 0.102214 0.007932
v -0.143220 0.091639 0.011873
v -0.143220 0.084259 -0.007932
v -0.143220 0.094833 -0.011873
v 0.013008 0.100071 -0.013008
v 0.013008 0.086402 -0.013008
v 0.018396 0.086402 0.000000
v 0.018396 0.100071 0.000000
v 0.013008 0.086402 0.013008
v 0.013008 0.100071 0.013008
v 0.024371 0.098576 0.001994
v 0.024371 0.087897 -0.001994
v 0.019997 0.102271 -0.007898
v 0.019997 0.091591 -0.011887
v 0.019997 0.084202 0.007898
v 0.019997 0.094881 0.011887
v 0.145058 0.098576 0.001994
v 0.145058 0.087897 -0.001994
v 0.140684 0.102271 -0.007898
v 0.140684 0.091591 -0.011887
v 0.140684 0.084202 0.007898
v 0.140684 0.094881 0.011887
v 0.000000 0.038505 -0.013671
v 0.000000 0.087142 -0.013671
v 0.009667 0.038505 -0.009667
v 0.009667 0.087142 -0.009667
v 0.013671 0.038505 0.000000
v 0.013671 0.087142 0.000000
v 0.009667 0.038505 0.009667
v 0.009667 0.087142 0.009667
v -0.000000 0.038505 0.013671
v -0.000000 0.087142 0.013671
v -0.009667 0.038505 0.009667
v -0.009667 0.087142 0.009667
v -0.013671 0.038505 -0.000000
v -0.013671 0.087142 -0.000000
v -0.009667 0.038505 -0.009667
v -0.009667 0.087142 -0.009667
v 0.000000 -0.050000 0.000000
v 0.036180 -0.022361 0.026286
v -0.013819 -0.022361 0.042532
v -0.044721 -0.022361 0.000000
v -0.013819 -0.022361 -0.042532
v 0.036180 -0.022361 -0.026286
v 0.013819 0.022361 0.042532
v -0.036180 0.022361 0.026286
v -0.036180 0.022361 -0.026286
v 0.013819 0.022361 -0.042532
v 0.044721 0.022361 0.000000
v 0.000000 0.050000 0.000000
v -0.008123 -0.042533 0.025000
v 0.021266 -0.042533 0.015451
v 0.013143 -0.026287 0.040451
v 0.042532 -0.026287 0.000000
v 0.021266 -0.042533 -0.015451
v -0.026286 -0.042533 0.000000
v -0.034409 -0.026287 0.025000
v -0.008123 -0.042533 -0.025000
v -0.034409 -0.026287 -0.025000
v 0.013143 -0.026287 -0.040451
v 0.047553 0.000000 0.015451
v 0.047553 0.000000 -0.015451
v 0.000000 0.000000 0.050000
v 0.029389 0.000000 0.040451
v -0.047553 0.000000 0.015451
v -0.029389 0.000000 0.040451
v -0.029389 0.000000 -0.040451
v -0.047553 0.000000 -0.015451
v 0.029389 0.000000 -0.040451
v 0.000000 0.000000 -0.050000
v 0.034409 0.026287 0.025000
v -0.013143 0.026287 0.040451
v -0.042532 0.026287 0.000000
v -0.013143 0.026287 -0.040451
v 0.034409 0.026287 -0.025000
v 0.008123 0.042533 0.025000
v 0.026286 0.042533 0.000000
v -0.021266 0.042533 0.015451
v -0.021266 0.042533 -0.015451
v 0.008123 0.042533 -0.025000
v 0.000000 0.086402 -0.018396
v 0.013008 0.086402 -0.013008
v 0.013008 0.100071 -0.013008
v 0.000000 0.100071 -0.018396
v 0.018396 0.086402 0.000000
v 0.018396 0.100071 0.000000
v 0.014276 0.087536 -0.010560
v 0.019997 0.091591 -0.011887
v 0.013008 0.086402 0.013008
v 0.013008 0.100071 0.013008
v -0.000000 0.086402 0.018396
v -0.000000 0.100071 0.018396
v -0.013008 0.086402 0.013008
v -0.013008 0.100071 0.013008
v -0.018396 0.086402 -0.000000
v -0.018396 0.100071 -0.000000
v -0.019641 0.094833 -0.011873
v -0.013008 0.086402 -0.013008
v -0.013008 0.100071 -0.013008
v -0.014686 0.098879 0.010567
v -0.014686 0.087594 -0.010567
v -0.019641 0.102214 0.007932
v -0.019641 0.091639 0.011873
v -0.019641 0.084259 -0.007932
v -0.143220 0.102214 0.007932
v -0.143220 0.102214 0.007932
v -0.143220 0.091639 0.011873
v -0.143220 0.091639 0.011873
v -0.147597 0.087949 0.001970
v -0.147597 0.098523 -0.001970
v -0.143220 0.084259 -0.007932
v -0.143220 0.084259 -0.007932
v -0.143220 0.094833 -0.011873
v -0.143220 0.094833 -0.011873
v 0.014276 0.098936 -0.010560
v 0.014276 0.098936 -0.010560
v 0.014276 0.087536 0.010560
v 0.014276 0.087536 0.010560
v 0.014276 0.098936 0.010560
v 0.019997 0.094881 0.011887
v 0.140684 0.094881 0.011887
v 0.140684 0.094881 0.011887
v 0.019997 0.102271 -0.007898
v 0.019997 0.084202 0.007898
v 0.140684 0.102271 -0.007898
v 0.140684 0.102271 -0.007898
v 0.140684 0.091591 -0.011887
v 0.140684 0.091591 -0.011887
v 0.145058 0.087897 -0.001994
v 0.145058 0.098576 0.001994
v 0.140684 0.084202 0.007898
v 0.140684 0.084202 0.007898
v 0.000000 0.038505 -0.013671
v 0.009667 0.038505 -0.009667
v 0.009667 0.087142 -0.009667
v 0.000000 0.087142 -0.013671
v 0.013671 0.038505 0.000000
v 0.013671 0.087142 0.000000
v 0.009667 0.038505 0.009667
v 0.009667 0.087142 0.009667
v -0.000000 0.038505 0.013671
v -0.000000 0.087142 0.013671
v -0.009667 0.038505 0.009667
v -0.009667 0.087142 0.009667
v -0.013671 0.038505 -0.000000
v -0.013671 0.087142 -0.000000
v -0.009667 0.038505 -0.009667
v -0.009667 0.087142 -0.009667
vn 0.0000 0.0000 -1.0000
vn 0.6839 0.0274 -0.7291
vn 0.6839 -0.0274 -0.7291
vn 0.4757 0.8459 0.2412
vn 0.8389 0.3407 0.4245
vn 0.1557 0.9362 0.3150
vn 0.0182 0.9422 0.3346
vn 0.4757 -0.8459 -0.2412
vn 0.8389 -0.3407 -0.4245
vn 0.1557 -0.9362 -0.3150
vn 0.0182 -0.9422 -0.3346
vn 0.6839 -0.0274 0.7291
vn 0.6839 0.0274 0.7291
vn 0.0000 0.0000 1.0000
vn -0.6472 0.0666 0.7594
vn -0.6472 -0.0666 0.7594
vn 0.4086 0.8516 -0.3283
vn -0.3470 0.9071 -0.2382
vn -0.0240 0.9399 -0.3406
vn 0.2657 0.9010 -0.3429
vn 0.0000 1.0000 0.0000
vn -0.7201 0.4056 -0.5630
vn -0.1724 0.9308 -0.3222
vn -0.6472 -0.0666 -0.7594
vn -0.6472 0.0666 -0.7594
vn 0.0000 -1.0000 0.0000
vn -0.6561 0.2769 0.7020
vn -0.7201 -0.4056 0.5630
vn -0.3470 -0.9071 0.2382
vn -0.8727 -0.4883 0.0000
vn -0.8727 0.4883 0.0000
vn -0.6561 -0.2769 -0.7020
vn 0.0000 0.2517 0.9678
vn 0.0000 0.2876 0.9577
vn 0.0000 0.3492 0.9370
vn 0.0000 0.9370 -0.3492
vn 0.0000 -0.2876 -0.9577
vn 0.0000 -0.2517 -0.9678
vn 0.4086 -0.8516 0.3283
vn -0.0240 -0.9399 0.3406
vn 0.2657 -0.9010 0.3429
vn -0.1724 -0.9308 0.3222
vn -0.9239 0.1336 0.3586
vn -1.0000 0.0000 0.0000
vn -0.9239 -0.1336 -0.3586
vn 0.0000 -0.3492 -0.9370
vn 0.0000 -0.9370 0.3492
vn 0.9031 0.1185 -0.4126
vn 0.9760 -0.2179 0.0000
vn 0.9760 0.2179 0.0000
vn 0.9031 -0.1185 0.4126
vn -0.2302 0.9153 0.3304
vn 0.0000 0.9368 0.3499
vn -0.3557 0.8812 0.3113
vn 0.0000 0.1778 -0.9841
vn 0.0000 0.2854 -0.9584
vn 0.0000 0.2533 -0.9674
vn 0.0000 -0.1778 0.9841
vn 0.0000 -0.2854 0.9584
vn 0.0000 -0.2533 0.9674
vn -0.3557 -0.8812 -0.3113
vn -0.2302 -0.9153 -0.3304
vn 0.9239 0.1339 -0.3585
vn 1.0000 0.0000 0.0000
vn 0.9239 -0.1339 0.3585
vn 0.0000 0.3499 -0.9368
vn 0.0000 -0.3499 0.9368
vn 0.0000 -0.9368 -0.3499
vn 0.4253 -0.8506 0.3090
vn -0.1625 -0.8506 0.5000
vn 0.7236 -0.4472 0.5257
vn 0.8506 -0.5257 0.0000
vn -0.5257 -0.8506 0.0000
vn -0.1625 -0.8506 -0.5000
vn 0.4253 -0.8506 -0.3090
vn 0.9510 0.0000 0.3090
vn -0.2764 -0.4472 0.8506
vn 0.2629 -0.5257 0.8090
vn -0.8944 -0.4472 0.0000
vn -0.6882 -0.5257 0.5000
vn -0.9510 0.0000 0.3090
vn -0.2764 -0.4472 -0.8506
vn -0.6882 -0.5257 -0.5000
vn -0.5878 0.0000 -0.8090
vn 0.7236 -0.4472 -0.5257
vn 0.2629 -0.5257 -0.8090
vn 0.5878 0.0000 -0.8090
vn 0.5878 0.0000 0.8090
vn -0.5878 0.0000 0.8090
vn -0.9510 0.0000 -0.3090
vn 0.9510 0.0000 -0.3090
vn 0.2764 0.4472 0.8506
vn 0.6882 0.5257 0.5000
vn 0.1625 0.8506 0.5000
vn -0.7236 0.4472 0.5257
vn -0.2629 0.5257 0.8090
vn -0.4253 0.8506 0.3090
vn -0.7236 0.4472 -0.5257
vn -0.8506 0.5257 0.0000
vn -0.4253 0.8506 -0.3090
vn 0.2764 0.4472 -0.8506
vn -0.2629 0.5257 -0.8090
vn 0.1625 0.8506 -0.5000
vn 0.8944 0.4472 0.0000
vn 0.6882 0.5257 -0.5000
vn 0.5257 0.8506 0.0000
vn 0.7071 0.0000 -0.7071
vn 0.7071 0.0000 0.7071
vn -0.7071 0.0000 0.7071
vn -0.7071 0.0000 -0.7071
usemtl Material.014
s 1
f 127//17 130//17 129//18 128//19
f 22//20 165//21 166//22 57//23
f 21//24 133//25 134//26 58//27
f 55//28 56//29 138//30 137//30
f 137//30 138//30 140//31 139//32
f 28//33 30//34 39//35 41//36
f 51//37 18//37 145//37 142//37 33//37 26//37 136//37 132//37
f 30//34 32//38 143//39 39//35
f 37//40 38//41 130//17 127//17
f 17//42 52//42 131//42 135//42 25//42 34//42 141//42 144//42
f 146//43 27//44 139//32 140//31
f 27//44 29//45 35//46 139//32
f 30//34 146//43 140//31 36//47
f 29//45 147//48 37//40 35//46
f 32//38 30//34 36//47 38//41
f 147//48 32//38 38//41 37//40
f 149//49 148//50 151//51 153//51
f 41//36 39//35 156//52 152//52
f 27//44 146//43 148//50 149//49
f 32//38 147//48 43//53 44//54
f 31//55 29//45 40//56 150//57
f 29//45 27//44 42//58 40//56
f 154//59 47//59 45//60 155//60
f 155//60 45//60 159//61 157//61
f 44//54 43//53 158//62 160//62
f 150//57 40//56 46//63 49//63
f 40//56 42//58 48//63 46//63
f 39//35 143//39 50//52 156//52
f 161//64 133//25 128//19 129//18
f 133//25 21//24 53//65 128//19
f 22//20 161//64 129//18 54//66
f 21//24 163//67 55//28 53//65
f 165//21 22//20 54//66 56//29
f 163//67 165//21 56//29 55//28
f 59//68 57//23 63//69 172//69
f 57//23 166//22 167//69 63//69
f 162//70 22//20 57//23 59//68
f 19//71 20//71 169//72 60//73
f 24//74 164//74 61//75 62//76
f 23//77 21//24 58//27 170//78
f 173//79 171//79 176//80 175//80
f 175//80 176//80 168//81 177//81
f 60//73 169//72 65//82 174//82
f 62//76 61//75 178//83 68//83
f 170//78 58//27 64//84 67//84
f 58//27 134//26 66//84 64//84
f 72//37 70//37 194//37 82//37 80//37 78//37 76//37 74//37
f 69//42 71//42 73//42 75//42 77//42 79//42 81//42 83//42
f 85//42 98//85 97//86
f 86//87 98//85 100//88
f 85//42 97//86 102//89
f 85//42 102//89 104//90
f 85//42 104//90 101//91
f 86//87 100//88 107//92
f 87//93 99//94 109//30
f 88//95 103//96 111//97
f 89//98 105//99 113//100
f 90//101 106//102 115//103
f 86//87 107//92 110//104
f 87//93 109//30 112//105
f 88//95 111//97 114//106
f 89//98 113//100 116//17
f 90//101 115//103 108//107
f 91//108 117//109 122//110
f 92//111 118//112 124//113
f 93//114 119//115 125//116
f 94//117 120//118 126//119
f 95//120 121//121 123//122
f 123//122 126//119 96//37
f 123//122 121//121 126//119
f 121//121 94//117 126//119
f 126//119 125//116 96//37
f 126//119 120//118 125//116
f 120//118 93//114 125//116
f 125//116 124//113 96//37
f 125//116 119//115 124//113
f 119//115 92//111 124//113
f 124//113 122//110 96//37
f 124//113 118//112 122//110
f 118//112 91//108 122//110
f 122//110 123//122 96//37
f 122//110 117//109 123//122
f 117//109 95//120 123//122
f 108//107 121//121 95//120
f 108//107 115//103 121//121
f 115//103 94//117 121//121
f 116//17 120//118 94//117
f 116//17 113//100 120//118
f 113//100 93//114 120//118
f 114//106 119//115 93//114
f 114//106 111//97 119//115
f 111//97 92//111 119//115
f 112//105 118//112 92//111
f 112//105 109//30 118//112
f 109//30 91//108 118//112
f 110//104 117//109 91//108
f 110//104 107//92 117//109
f 107//92 95//120 117//109
f 115//103 116//17 94//117
f 115//103 106//102 116//17
f 106//102 89//98 116//17
f 113//100 114//106 93//114
f 113//100 105//99 114//106
f 105//99 88//95 114//106
f 111//97 112//105 92//111
f 111//97 103//96 112//105
f 103//96 87//93 112//105
f 109//30 110//104 91//108
f 109//30 99//94 110//104
f 99//94 86//87 110//104
f 107//92 108//107 95//120
f 107//92 100//88 108//107
f 100//88 90//101 108//107
f 101//91 106//102 90//101
f 101//91 104//90 106//102
f 104//90 89//98 106//102
f 104//90 105//99 89//98
f 104//90 102//89 105//99
f 102//89 88//95 105//99
f 102//89 103//96 88//95
f 102//89 97//86 103//96
f 97//86 87//93 103//96
f 100//88 101//91 90//101
f 100//88 98//85 101//91
f 98//85 85//42 101//91
f 97//86 99//94 87//93
f 97//86 98//85 99//94
f 98//85 86//87 99//94
usemtl Material.015
f 179//17 182//17 181//123 180//123
f 180//123 181//123 184//80 183//80
f 183//80 184//80 186//124 185//124
f 185//124 186//124 188//30 187//30
f 187//30 188//30 190//125 189//125
f 189//125 190//125 192//60 191//60
f 191//60 192//60 84//126 193//126
f 193//126 84//126 182//17 179//17
