# Blender v2.77 (sub 0) OBJ File: ''
# www.blender.org
mtllib RoundedEdge-Inside.mtl
o Cube.001
v -0.500000 0.499464 0.500000
v -0.500000 0.500000 0.500000
v -0.500000 0.500000 -0.500000
v -0.500000 0.499464 -0.500000
v 0.500000 0.500000 0.500000
v -0.343566 0.487688 0.500000
v -0.190983 0.451057 0.500000
v -0.046010 0.391007 0.500000
v 0.087785 0.309017 0.500000
v 0.207107 0.207107 0.500000
v 0.309017 0.087785 0.500000
v 0.391006 -0.046009 0.500000
v 0.451056 -0.190983 0.500000
v 0.487688 -0.343566 0.500000
v 0.499213 -0.500000 0.500000
v 0.500000 -0.500000 0.500000
v 0.500000 0.500000 -0.500000
v 0.500000 -0.500000 -0.500000
v 0.499213 -0.500000 -0.500000
v 0.487688 -0.343566 -0.500000
v 0.451057 -0.190983 -0.500000
v 0.391007 -0.046009 -0.500000
v 0.309017 0.087785 -0.500000
v 0.207107 0.207107 -0.500000
v 0.087785 0.309017 -0.500000
v -0.046009 0.391007 -0.500000
v -0.190983 0.451057 -0.500000
v -0.343565 0.487688 -0.500000
v -0.500000 0.499464 0.500000
v -0.500000 0.499464 0.500000
v -0.500000 0.500000 0.500000
v -0.500000 0.500000 0.500000
v -0.500000 0.500000 -0.500000
v -0.500000 0.500000 -0.500000
v -0.500000 0.499464 -0.500000
v -0.500000 0.499464 -0.500000
v -0.343566 0.487688 0.500000
v -0.190983 0.451057 0.500000
v -0.046010 0.391007 0.500000
v 0.087785 0.309017 0.500000
v 0.207107 0.207107 0.500000
v 0.309017 0.087785 0.500000
v 0.391006 -0.046009 0.500000
v 0.451056 -0.190983 0.500000
v 0.487688 -0.343566 0.500000
v 0.499213 -0.500000 0.500000
v 0.499213 -0.500000 0.500000
v 0.500000 -0.500000 0.500000
v 0.500000 -0.500000 0.500000
v 0.500000 0.500000 0.500000
v 0.500000 0.500000 0.500000
v 0.500000 0.500000 -0.500000
v 0.500000 0.500000 -0.500000
v 0.500000 -0.500000 -0.500000
v 0.500000 -0.500000 -0.500000
v 0.499213 -0.500000 -0.500000
v 0.499213 -0.500000 -0.500000
v 0.487688 -0.343566 -0.500000
v 0.451057 -0.190983 -0.500000
v 0.391007 -0.046009 -0.500000
v 0.309017 0.087785 -0.500000
v 0.207107 0.207107 -0.500000
v 0.087785 0.309017 -0.500000
v -0.046009 0.391007 -0.500000
v -0.190983 0.451057 -0.500000
v -0.343565 0.487688 -0.500000
vn -1.0000 0.0000 0.0000
vn 0.0000 0.0000 1.0000
vn 0.0000 1.0000 0.0000
vn 0.0000 0.0000 -1.0000
vn 1.0000 0.0000 0.0000
vn 0.0000 -1.0000 0.0000
vn -0.1547 -0.9879 0.0000
vn -0.0750 -0.9972 0.0000
vn -0.3090 -0.9510 0.0000
vn -0.4540 -0.8910 0.0000
vn -0.5878 -0.8090 0.0000
vn -0.7071 -0.7071 0.0000
vn -0.8090 -0.5878 0.0000
vn -0.8910 -0.4540 0.0000
vn -0.9510 -0.3090 0.0000
vn -0.9881 -0.1539 0.0000
vn -0.9973 -0.0735 0.0000
usemtl None
s 1
f 29//1 31//1 33//1 35//1
f 50//2 32//2 30//2 37//2 38//2 39//2 40//2 41//2 42//2 43//2 44//2 45//2 46//2 48//2
f 51//3 52//3 34//3 2//3
f 3//4 53//4 54//4 56//4 58//4 59//4 60//4 61//4 62//4 63//4 64//4 65//4 66//4 36//4
f 17//5 5//5 49//5 55//5
f 57//6 18//6 16//6 47//6
f 6//7 1//8 4//8 28//7
f 28//7 27//9 7//9 6//7
f 27//9 26//10 8//10 7//9
f 26//10 25//11 9//11 8//10
f 25//11 24//12 10//12 9//11
f 24//12 23//13 11//13 10//12
f 23//13 22//14 12//14 11//13
f 22//14 21//15 13//15 12//14
f 21//15 20//16 14//16 13//15
f 20//16 19//17 15//17 14//16
